<?xml version="1.0" encoding="us-ascii" standalone="no"?><svg xmlns="http://www.w3.org/2000/svg" xmlns:xlink="http://www.w3.org/1999/xlink" contentStyleType="text/css" height="639px" preserveAspectRatio="none" style="width:706px;height:639px;background:#FFFFFF;" version="1.1" viewBox="0 0 706 639" width="706px" zoomAndPan="magnify"><defs/><g><text fill="#000000" font-family="sans-serif" font-size="14" font-weight="bold" lengthAdjust="spacing" textLength="228" x="238" y="30.1074">System Sequence Diagram (SSD)</text><rect fill="#FFFFFF" height="376.4922" style="stroke:#181818;stroke-width:1.0;" width="10" x="57.5" y="151.8633"/><rect fill="#FFFFFF" height="31.291" style="stroke:#181818;stroke-width:1.0;" width="10" x="338.5" y="175.1543"/><rect fill="#FFFFFF" height="156.4551" style="stroke:#181818;stroke-width:1.0;" width="10" x="338.5" y="237.7363"/><rect fill="#FFFFFF" height="93.873" style="stroke:#181818;stroke-width:1.0;" width="10" x="338.5" y="425.4824"/><rect fill="#FFFFFF" height="93.873" style="stroke:#181818;stroke-width:1.0;" width="10" x="514.5" y="269.0273"/><rect fill="#FFFFFF" height="31.291" style="stroke:#181818;stroke-width:1.0;" width="10" x="514.5" y="456.7734"/><rect fill="#FFFFFF" height="31.291" style="stroke:#181818;stroke-width:1.0;" width="10" x="646" y="300.3184"/><line style="stroke:#181818;stroke-width:0.5;stroke-dasharray:5.0,5.0;" x1="62" x2="62" y1="141.8633" y2="537.3555"/><line style="stroke:#181818;stroke-width:0.5;stroke-dasharray:5.0,5.0;" x1="343" x2="343" y1="141.8633" y2="537.3555"/><line style="stroke:#181818;stroke-width:0.5;stroke-dasharray:5.0,5.0;" x1="519" x2="519" y1="141.8633" y2="537.3555"/><line style="stroke:#181818;stroke-width:0.5;stroke-dasharray:5.0,5.0;" x1="651" x2="651" y1="141.8633" y2="537.3555"/><text fill="#000000" font-family="sans-serif" font-size="14" lengthAdjust="spacing" textLength="109" x="5" y="119.7285">Human Resource</text><text fill="#000000" font-family="sans-serif" font-size="14" lengthAdjust="spacing" textLength="56" x="31.5" y="138.3496">Manager</text><ellipse cx="62.5" cy="53.1211" fill="#E3E3E3" rx="8" ry="8" style="stroke:#181818;stroke-width:0.5;"/><path d="M62.5,61.1211 L62.5,88.1211 M49.5,69.1211 L75.5,69.1211 M62.5,88.1211 L49.5,103.1211 M62.5,88.1211 L75.5,103.1211 " fill="none" style="stroke:#181818;stroke-width:0.5;"/><text fill="#000000" font-family="sans-serif" font-size="14" lengthAdjust="spacing" textLength="109" x="5" y="551.4629">Human Resource</text><text fill="#000000" font-family="sans-serif" font-size="14" lengthAdjust="spacing" textLength="56" x="31.5" y="570.084">Manager</text><ellipse cx="62.5" cy="582.0977" fill="#E3E3E3" rx="8" ry="8" style="stroke:#181818;stroke-width:0.5;"/><path d="M62.5,590.0977 L62.5,617.0977 M49.5,598.0977 L75.5,598.0977 M62.5,617.0977 L49.5,632.0977 M62.5,617.0977 L75.5,632.0977 " fill="none" style="stroke:#181818;stroke-width:0.5;"/><rect fill="#E3E3E3" height="32.6211" rx="2.5" ry="2.5" style="stroke:#181818;stroke-width:0.5;" width="95" x="296" y="108.2422"/><text fill="#000000" font-family="sans-serif" font-size="14" lengthAdjust="spacing" textLength="81" x="303" y="130.3496">:CreateJobUI</text><rect fill="#E3E3E3" height="32.6211" rx="2.5" ry="2.5" style="stroke:#181818;stroke-width:0.5;" width="95" x="296" y="536.3555"/><text fill="#000000" font-family="sans-serif" font-size="14" lengthAdjust="spacing" textLength="81" x="303" y="558.4629">:CreateJobUI</text><rect fill="#E3E3E3" height="32.6211" rx="2.5" ry="2.5" style="stroke:#181818;stroke-width:0.5;" width="145" x="447" y="108.2422"/><text fill="#000000" font-family="sans-serif" font-size="14" lengthAdjust="spacing" textLength="131" x="454" y="130.3496">:CreateJobController</text><rect fill="#E3E3E3" height="32.6211" rx="2.5" ry="2.5" style="stroke:#181818;stroke-width:0.5;" width="145" x="447" y="536.3555"/><text fill="#000000" font-family="sans-serif" font-size="14" lengthAdjust="spacing" textLength="131" x="454" y="558.4629">:CreateJobController</text><rect fill="#E3E3E3" height="32.6211" rx="2.5" ry="2.5" style="stroke:#181818;stroke-width:0.5;" width="98" x="602" y="108.2422"/><text fill="#000000" font-family="sans-serif" font-size="14" lengthAdjust="spacing" textLength="84" x="609" y="130.3496">:Organization</text><rect fill="#E3E3E3" height="32.6211" rx="2.5" ry="2.5" style="stroke:#181818;stroke-width:0.5;" width="98" x="602" y="536.3555"/><text fill="#000000" font-family="sans-serif" font-size="14" lengthAdjust="spacing" textLength="84" x="609" y="558.4629">:Organization</text><rect fill="#FFFFFF" height="376.4922" style="stroke:#181818;stroke-width:1.0;" width="10" x="57.5" y="151.8633"/><rect fill="#FFFFFF" height="31.291" style="stroke:#181818;stroke-width:1.0;" width="10" x="338.5" y="175.1543"/><rect fill="#FFFFFF" height="156.4551" style="stroke:#181818;stroke-width:1.0;" width="10" x="338.5" y="237.7363"/><rect fill="#FFFFFF" height="93.873" style="stroke:#181818;stroke-width:1.0;" width="10" x="338.5" y="425.4824"/><rect fill="#FFFFFF" height="93.873" style="stroke:#181818;stroke-width:1.0;" width="10" x="514.5" y="269.0273"/><rect fill="#FFFFFF" height="31.291" style="stroke:#181818;stroke-width:1.0;" width="10" x="514.5" y="456.7734"/><rect fill="#FFFFFF" height="31.291" style="stroke:#181818;stroke-width:1.0;" width="10" x="646" y="300.3184"/><polygon fill="#181818" points="326.5,171.1543,336.5,175.1543,326.5,179.1543,330.5,175.1543" style="stroke:#181818;stroke-width:1.0;"/><line style="stroke:#181818;stroke-width:1.0;" x1="67.5" x2="332.5" y1="175.1543" y2="175.1543"/><text fill="#000000" font-family="sans-serif" font-size="13" font-weight="bold" lengthAdjust="spacing" textLength="7" x="74.5" y="169.8916">1</text><text fill="#000000" font-family="sans-serif" font-size="13" lengthAdjust="spacing" textLength="142" x="85.5" y="169.8916">asks to create a new job</text><polygon fill="#181818" points="78.5,202.4453,68.5,206.4453,78.5,210.4453,74.5,206.4453" style="stroke:#181818;stroke-width:1.0;"/><line style="stroke:#181818;stroke-width:1.0;stroke-dasharray:2.0,2.0;" x1="72.5" x2="342.5" y1="206.4453" y2="206.4453"/><text fill="#000000" font-family="sans-serif" font-size="13" font-weight="bold" lengthAdjust="spacing" textLength="7" x="84.5" y="201.1826">2</text><text fill="#000000" font-family="sans-serif" font-size="13" lengthAdjust="spacing" textLength="144" x="95.5" y="201.1826">requests data (job name)</text><polygon fill="#181818" points="326.5,233.7363,336.5,237.7363,326.5,241.7363,330.5,237.7363" style="stroke:#181818;stroke-width:1.0;"/><line style="stroke:#181818;stroke-width:1.0;" x1="67.5" x2="332.5" y1="237.7363" y2="237.7363"/><text fill="#000000" font-family="sans-serif" font-size="13" font-weight="bold" lengthAdjust="spacing" textLength="7" x="74.5" y="232.4736">3</text><text fill="#000000" font-family="sans-serif" font-size="13" lengthAdjust="spacing" textLength="122" x="85.5" y="232.4736">types requested data</text><polygon fill="#181818" points="502.5,265.0273,512.5,269.0273,502.5,273.0273,506.5,269.0273" style="stroke:#181818;stroke-width:1.0;"/><line style="stroke:#181818;stroke-width:1.0;" x1="348.5" x2="508.5" y1="269.0273" y2="269.0273"/><text fill="#000000" font-family="sans-serif" font-size="13" font-weight="bold" lengthAdjust="spacing" textLength="7" x="355.5" y="263.7646">4</text><text fill="#000000" font-family="sans-serif" font-size="13" lengthAdjust="spacing" textLength="82" x="366.5" y="263.7646">validation data</text><polygon fill="#181818" points="634,296.3184,644,300.3184,634,304.3184,638,300.3184" style="stroke:#181818;stroke-width:1.0;"/><line style="stroke:#181818;stroke-width:1.0;" x1="524.5" x2="640" y1="300.3184" y2="300.3184"/><text fill="#000000" font-family="sans-serif" font-size="13" font-weight="bold" lengthAdjust="spacing" textLength="7" x="531.5" y="295.0557">5</text><text fill="#000000" font-family="sans-serif" font-size="13" lengthAdjust="spacing" textLength="63" x="542.5" y="295.0557">checkJob()</text><polygon fill="#181818" points="535.5,327.6094,525.5,331.6094,535.5,335.6094,531.5,331.6094" style="stroke:#181818;stroke-width:1.0;"/><line style="stroke:#181818;stroke-width:1.0;" x1="529.5" x2="650" y1="331.6094" y2="331.6094"/><text fill="#000000" font-family="sans-serif" font-size="13" font-weight="bold" lengthAdjust="spacing" textLength="7" x="541.5" y="326.3467">6</text><text fill="#000000" font-family="sans-serif" font-size="13" lengthAdjust="spacing" textLength="4" x="552.5" y="326.3467">&#160;</text><polygon fill="#181818" points="359.5,358.9004,349.5,362.9004,359.5,366.9004,355.5,362.9004" style="stroke:#181818;stroke-width:1.0;"/><line style="stroke:#181818;stroke-width:1.0;" x1="353.5" x2="518.5" y1="362.9004" y2="362.9004"/><text fill="#000000" font-family="sans-serif" font-size="13" font-weight="bold" lengthAdjust="spacing" textLength="7" x="365.5" y="357.6377">7</text><text fill="#000000" font-family="sans-serif" font-size="13" lengthAdjust="spacing" textLength="4" x="376.5" y="357.6377">&#160;</text><polygon fill="#181818" points="78.5,390.1914,68.5,394.1914,78.5,398.1914,74.5,394.1914" style="stroke:#181818;stroke-width:1.0;"/><line style="stroke:#181818;stroke-width:1.0;stroke-dasharray:2.0,2.0;" x1="72.5" x2="342.5" y1="394.1914" y2="394.1914"/><text fill="#000000" font-family="sans-serif" font-size="13" font-weight="bold" lengthAdjust="spacing" textLength="7" x="84.5" y="388.9287">8</text><text fill="#000000" font-family="sans-serif" font-size="13" lengthAdjust="spacing" textLength="236" x="95.5" y="388.9287">shows all data and requests confirmation</text><polygon fill="#181818" points="326.5,421.4824,336.5,425.4824,326.5,429.4824,330.5,425.4824" style="stroke:#181818;stroke-width:1.0;"/><line style="stroke:#181818;stroke-width:1.0;" x1="67.5" x2="332.5" y1="425.4824" y2="425.4824"/><text fill="#000000" font-family="sans-serif" font-size="13" font-weight="bold" lengthAdjust="spacing" textLength="7" x="74.5" y="420.2197">9</text><text fill="#000000" font-family="sans-serif" font-size="13" lengthAdjust="spacing" textLength="78" x="85.5" y="420.2197">confirms data</text><polygon fill="#181818" points="502.5,452.7734,512.5,456.7734,502.5,460.7734,506.5,456.7734" style="stroke:#181818;stroke-width:1.0;"/><line style="stroke:#181818;stroke-width:1.0;" x1="348.5" x2="508.5" y1="456.7734" y2="456.7734"/><text fill="#000000" font-family="sans-serif" font-size="13" font-weight="bold" lengthAdjust="spacing" textLength="14" x="355.5" y="451.5107">10</text><text fill="#000000" font-family="sans-serif" font-size="13" lengthAdjust="spacing" textLength="129" x="373.5" y="451.5107">RegisterJob(job name)</text><polygon fill="#181818" points="359.5,484.0645,349.5,488.0645,359.5,492.0645,355.5,488.0645" style="stroke:#181818;stroke-width:1.0;"/><line style="stroke:#181818;stroke-width:1.0;" x1="353.5" x2="518.5" y1="488.0645" y2="488.0645"/><text fill="#000000" font-family="sans-serif" font-size="13" font-weight="bold" lengthAdjust="spacing" textLength="14" x="365.5" y="482.8018">11</text><text fill="#000000" font-family="sans-serif" font-size="13" lengthAdjust="spacing" textLength="20" x="383.5" y="482.8018">Job</text><polygon fill="#181818" points="78.5,515.3555,68.5,519.3555,78.5,523.3555,74.5,519.3555" style="stroke:#181818;stroke-width:1.0;"/><line style="stroke:#181818;stroke-width:1.0;stroke-dasharray:2.0,2.0;" x1="72.5" x2="342.5" y1="519.3555" y2="519.3555"/><text fill="#000000" font-family="sans-serif" font-size="13" font-weight="bold" lengthAdjust="spacing" textLength="14" x="84.5" y="514.0928">12</text><text fill="#000000" font-family="sans-serif" font-size="13" lengthAdjust="spacing" textLength="158" x="102.5" y="514.0928">displays operation success</text><!--SRC=[ZPBDJkj038NtUGghgtR12tJ11XON98H4n8wDEp7fq8adZ1sgtgU_JWXjaZiWifeVd-FZRo87poqcRA297Dq-nOP0KqU5d6zQT0UigTHJ84Za5BaEqmBPOnMFdcjunI1K5EhLIikJA3LGqdj7x0XkFTPz-ReiRpT5WPr6xfeT9LixZGbMVxe66Pv8OfSSlV03iZLEAq21SLrOI_NEjyWAg-rD8bIwZxldkw7g-UwxWfl8cc88ezrbkn0yfXhP_qNraOVAwK4Vr7-OuJbE0VQD6xYwjW2mDTL1G2EueJaWC1tXBUw6uhE5PHqE-izaLwR-CjeQPwCcAb2X8gnD38mDRGP5HV-PB2FegINvSg5giCctxrjVJtYO-0E3huQ1Cxe9kVvy8ZIRAImpSdjo1uE_timzPapxcvbk5cSnSAQd3RA0Cb4NMRgoZqS13E4JBt9r0UuYl_hKNBBzWlQeaJpcwIClI3zHxUrzKize_iO_CSynCBFxyG_B4CjIgBoq0Ky2iQNqYLuwvqWaC_S_]--></g></svg>