<?xml version="1.0" encoding="us-ascii" standalone="no"?><svg xmlns="http://www.w3.org/2000/svg" xmlns:xlink="http://www.w3.org/1999/xlink" contentStyleType="text/css" height="855px" preserveAspectRatio="none" style="width:507px;height:855px;background:#FFFFFF;" version="1.1" viewBox="0 0 507 855" width="507px" zoomAndPan="magnify"><defs/><g><!--class Organization--><g id="elem_Organization"><rect codeLine="2" fill="#F1F1F1" height="345.9375" id="Organization" rx="2.5" ry="2.5" style="stroke:#181818;stroke-width:0.5;" width="493" x="7" y="7"/><ellipse cx="209.25" cy="23" fill="#ADD1B2" rx="11" ry="11" style="stroke:#181818;stroke-width:1.0;"/><path d="M212.0156,18.875 Q212.1719,18.6563 212.3594,18.5469 Q212.5469,18.4375 212.7656,18.4375 Q213.1406,18.4375 213.375,18.7031 Q213.6094,18.9531 213.6094,19.5625 L213.6094,21.0156 Q213.6094,21.625 213.375,21.8906 Q213.1406,22.1563 212.7656,22.1563 Q212.4219,22.1563 212.2188,21.9531 Q212.0156,21.7656 211.9063,21.25 Q211.8594,20.8906 211.6719,20.7031 Q211.3438,20.3281 210.7344,20.1094 Q210.125,19.8906 209.5,19.8906 Q208.7344,19.8906 208.0938,20.2188 Q207.4688,20.5469 206.9688,21.2969 Q206.4844,22.0469 206.4844,23.0781 L206.4844,24.1719 Q206.4844,25.4063 207.375,26.2344 Q208.2656,27.0469 209.8594,27.0469 Q210.7969,27.0469 211.4531,26.7969 Q211.8438,26.6406 212.2656,26.2031 Q212.5313,25.9375 212.6719,25.8594 Q212.8281,25.7813 213.0313,25.7813 Q213.3594,25.7813 213.6094,26.0469 Q213.875,26.2969 213.875,26.6406 Q213.875,26.9844 213.5313,27.3906 Q213.0313,27.9688 212.2344,28.2969 Q211.1563,28.75 209.8594,28.75 Q208.3438,28.75 207.1406,28.125 Q206.1563,27.625 205.4688,26.5625 Q204.7813,25.4844 204.7813,24.2031 L204.7813,23.0469 Q204.7813,21.7188 205.3906,20.5781 Q206.0156,19.4219 207.1094,18.8125 Q208.2031,18.1875 209.4375,18.1875 Q210.1719,18.1875 210.8125,18.3594 Q211.4688,18.5156 212.0156,18.875 Z " fill="#000000"/><text fill="#000000" font-family="sans-serif" font-size="14" lengthAdjust="spacing" textLength="80" x="229.75" y="28.7969">Organization</text><line style="stroke:#181818;stroke-width:0.5;" x1="8" x2="499" y1="39" y2="39"/><rect fill="none" height="6" style="stroke:#C82930;stroke-width:1.0;" width="6" x="15" y="50.8105"/><text fill="#000000" font-family="sans-serif" font-size="14" lengthAdjust="spacing" textLength="80" x="27" y="58.1074">name: String</text><rect fill="none" height="6" style="stroke:#C82930;stroke-width:1.0;" width="6" x="15" y="69.4316"/><text fill="#000000" font-family="sans-serif" font-size="14" lengthAdjust="spacing" textLength="113" x="27" y="76.7285">vatNumber: String</text><rect fill="none" height="6" style="stroke:#C82930;stroke-width:1.0;" width="6" x="15" y="88.0527"/><text fill="#000000" font-family="sans-serif" font-size="14" lengthAdjust="spacing" textLength="92" x="27" y="95.3496">website: String</text><rect fill="none" height="6" style="stroke:#C82930;stroke-width:1.0;" width="6" x="15" y="106.6738"/><text fill="#000000" font-family="sans-serif" font-size="14" lengthAdjust="spacing" textLength="134" x="27" y="113.9707">phoneNumber: String</text><rect fill="none" height="6" style="stroke:#C82930;stroke-width:1.0;" width="6" x="15" y="125.2949"/><text fill="#000000" font-family="sans-serif" font-size="14" lengthAdjust="spacing" textLength="78" x="27" y="132.5918">email: String</text><rect fill="none" height="6" style="stroke:#C82930;stroke-width:1.0;" width="6" x="15" y="143.916"/><text fill="#000000" font-family="sans-serif" font-size="14" lengthAdjust="spacing" textLength="374" x="27" y="151.2129">humanResourceManagers: List&lt;HumanResourceManager&gt;</text><rect fill="none" height="6" style="stroke:#C82930;stroke-width:1.0;" width="6" x="15" y="162.5371"/><text fill="#000000" font-family="sans-serif" font-size="14" lengthAdjust="spacing" textLength="94" x="27" y="169.834">jobs: List&lt;Job&gt;</text><line style="stroke:#181818;stroke-width:0.5;" x1="8" x2="499" y1="177.3477" y2="177.3477"/><ellipse cx="18" cy="192.1582" fill="#84BE84" rx="3" ry="3" style="stroke:#038048;stroke-width:1.0;"/><text fill="#000000" font-family="sans-serif" font-size="14" lengthAdjust="spacing" textLength="111" x="27" y="196.4551">getName(): String</text><ellipse cx="18" cy="210.7793" fill="#84BE84" rx="3" ry="3" style="stroke:#038048;stroke-width:1.0;"/><text fill="#000000" font-family="sans-serif" font-size="14" lengthAdjust="spacing" textLength="145" x="27" y="215.0762">getVatNumber(): String</text><ellipse cx="18" cy="229.4004" fill="#84BE84" rx="3" ry="3" style="stroke:#038048;stroke-width:1.0;"/><text fill="#000000" font-family="sans-serif" font-size="14" lengthAdjust="spacing" textLength="126" x="27" y="233.6973">getWebsite(): String</text><ellipse cx="18" cy="248.0215" fill="#84BE84" rx="3" ry="3" style="stroke:#038048;stroke-width:1.0;"/><text fill="#000000" font-family="sans-serif" font-size="14" lengthAdjust="spacing" textLength="165" x="27" y="252.3184">getPhoneNumber(): String</text><ellipse cx="18" cy="266.6426" fill="#84BE84" rx="3" ry="3" style="stroke:#038048;stroke-width:1.0;"/><text fill="#000000" font-family="sans-serif" font-size="14" lengthAdjust="spacing" textLength="109" x="27" y="270.9395">getEmail(): String</text><ellipse cx="18" cy="285.2637" fill="#84BE84" rx="3" ry="3" style="stroke:#038048;stroke-width:1.0;"/><text fill="#000000" font-family="sans-serif" font-size="14" lengthAdjust="spacing" textLength="467" x="27" y="289.5605">addHumanResourceManager(hrManager: HumanResourceManager): void</text><ellipse cx="18" cy="303.8848" fill="#84BE84" rx="3" ry="3" style="stroke:#038048;stroke-width:1.0;"/><text fill="#000000" font-family="sans-serif" font-size="14" lengthAdjust="spacing" textLength="405" x="27" y="308.1816">getHumanResourceManagers(): List&lt;HumanResourceManager&gt;</text><ellipse cx="18" cy="322.5059" fill="#84BE84" rx="3" ry="3" style="stroke:#038048;stroke-width:1.0;"/><text fill="#000000" font-family="sans-serif" font-size="14" lengthAdjust="spacing" textLength="139" x="27" y="326.8027">addJob(job: Job): void</text><ellipse cx="18" cy="341.127" fill="#84BE84" rx="3" ry="3" style="stroke:#038048;stroke-width:1.0;"/><text fill="#000000" font-family="sans-serif" font-size="14" lengthAdjust="spacing" textLength="127" x="27" y="345.4238">getJobs(): List&lt;Job&gt;</text></g><!--class HumanResourceManager--><g id="elem_HumanResourceManager"><rect codeLine="21" fill="#F1F1F1" height="290.0742" id="HumanResourceManager" rx="2.5" ry="2.5" style="stroke:#181818;stroke-width:0.5;" width="277" x="19" y="413"/><ellipse cx="72.75" cy="429" fill="#ADD1B2" rx="11" ry="11" style="stroke:#181818;stroke-width:1.0;"/><path d="M75.5156,424.875 Q75.6719,424.6563 75.8594,424.5469 Q76.0469,424.4375 76.2656,424.4375 Q76.6406,424.4375 76.875,424.7031 Q77.1094,424.9531 77.1094,425.5625 L77.1094,427.0156 Q77.1094,427.625 76.875,427.8906 Q76.6406,428.1563 76.2656,428.1563 Q75.9219,428.1563 75.7188,427.9531 Q75.5156,427.7656 75.4063,427.25 Q75.3594,426.8906 75.1719,426.7031 Q74.8438,426.3281 74.2344,426.1094 Q73.625,425.8906 73,425.8906 Q72.2344,425.8906 71.5938,426.2188 Q70.9688,426.5469 70.4688,427.2969 Q69.9844,428.0469 69.9844,429.0781 L69.9844,430.1719 Q69.9844,431.4063 70.875,432.2344 Q71.7656,433.0469 73.3594,433.0469 Q74.2969,433.0469 74.9531,432.7969 Q75.3438,432.6406 75.7656,432.2031 Q76.0313,431.9375 76.1719,431.8594 Q76.3281,431.7813 76.5313,431.7813 Q76.8594,431.7813 77.1094,432.0469 Q77.375,432.2969 77.375,432.6406 Q77.375,432.9844 77.0313,433.3906 Q76.5313,433.9688 75.7344,434.2969 Q74.6563,434.75 73.3594,434.75 Q71.8438,434.75 70.6406,434.125 Q69.6563,433.625 68.9688,432.5625 Q68.2813,431.4844 68.2813,430.2031 L68.2813,429.0469 Q68.2813,427.7188 68.8906,426.5781 Q69.5156,425.4219 70.6094,424.8125 Q71.7031,424.1875 72.9375,424.1875 Q73.6719,424.1875 74.3125,424.3594 Q74.9688,424.5156 75.5156,424.875 Z " fill="#000000"/><text fill="#000000" font-family="sans-serif" font-size="14" lengthAdjust="spacing" textLength="161" x="93.25" y="434.7969">HumanResourceManager</text><line style="stroke:#181818;stroke-width:0.5;" x1="20" x2="295" y1="445" y2="445"/><rect fill="none" height="6" style="stroke:#C82930;stroke-width:1.0;" width="6" x="27" y="456.8105"/><text fill="#000000" font-family="sans-serif" font-size="14" lengthAdjust="spacing" textLength="80" x="39" y="464.1074">name: String</text><rect fill="none" height="6" style="stroke:#C82930;stroke-width:1.0;" width="6" x="27" y="475.4316"/><text fill="#000000" font-family="sans-serif" font-size="14" lengthAdjust="spacing" textLength="78" x="39" y="482.7285">email: String</text><rect fill="none" height="6" style="stroke:#C82930;stroke-width:1.0;" width="6" x="27" y="494.0527"/><text fill="#000000" font-family="sans-serif" font-size="14" lengthAdjust="spacing" textLength="85" x="39" y="501.3496">phone: String</text><rect fill="none" height="6" style="stroke:#C82930;stroke-width:1.0;" width="6" x="27" y="512.6738"/><text fill="#000000" font-family="sans-serif" font-size="14" lengthAdjust="spacing" textLength="94" x="39" y="519.9707">jobs: List&lt;Job&gt;</text><line style="stroke:#181818;stroke-width:0.5;" x1="20" x2="295" y1="527.4844" y2="527.4844"/><ellipse cx="30" cy="542.2949" fill="#84BE84" rx="3" ry="3" style="stroke:#038048;stroke-width:1.0;"/><text fill="#000000" font-family="sans-serif" font-size="14" lengthAdjust="spacing" textLength="111" x="39" y="546.5918">getName(): String</text><ellipse cx="30" cy="560.916" fill="#84BE84" rx="3" ry="3" style="stroke:#038048;stroke-width:1.0;"/><text fill="#000000" font-family="sans-serif" font-size="14" lengthAdjust="spacing" textLength="109" x="39" y="565.2129">getEmail(): String</text><ellipse cx="30" cy="579.5371" fill="#84BE84" rx="3" ry="3" style="stroke:#038048;stroke-width:1.0;"/><text fill="#000000" font-family="sans-serif" font-size="14" lengthAdjust="spacing" textLength="116" x="39" y="583.834">getPhone(): String</text><ellipse cx="30" cy="598.1582" fill="#84BE84" rx="3" ry="3" style="stroke:#038048;stroke-width:1.0;"/><text fill="#000000" font-family="sans-serif" font-size="14" lengthAdjust="spacing" textLength="194" x="39" y="602.4551">createJob(String newJob): void</text><ellipse cx="30" cy="616.7793" fill="#84BE84" rx="3" ry="3" style="stroke:#038048;stroke-width:1.0;"/><text fill="#000000" font-family="sans-serif" font-size="14" lengthAdjust="spacing" textLength="127" x="39" y="621.0762">getJobs(): List&lt;Job&gt;</text><ellipse cx="30" cy="635.4004" fill="#84BE84" rx="3" ry="3" style="stroke:#038048;stroke-width:1.0;"/><text fill="#000000" font-family="sans-serif" font-size="14" lengthAdjust="spacing" textLength="114" x="39" y="639.6973">registerJob(): void</text><ellipse cx="30" cy="654.0215" fill="#84BE84" rx="3" ry="3" style="stroke:#038048;stroke-width:1.0;"/><text fill="#000000" font-family="sans-serif" font-size="14" lengthAdjust="spacing" textLength="191" x="39" y="658.3184">checkJob(String JobName): int</text><rect fill="#F24D5C" height="6" style="stroke:#C82930;stroke-width:1.0;" width="6" x="27" y="669.6426"/><text fill="#000000" font-family="sans-serif" font-size="14" lengthAdjust="spacing" textLength="240" x="39" y="676.9395">JobCatcher(String JobName): boolean</text><rect fill="#F24D5C" height="6" style="stroke:#C82930;stroke-width:1.0;" width="6" x="27" y="688.2637"/><text fill="#000000" font-family="sans-serif" font-size="14" lengthAdjust="spacing" textLength="251" x="39" y="695.5605">CheckifSame(String JobName): boolean</text></g><!--class Job--><g id="elem_Job"><rect codeLine="37" fill="#F1F1F1" height="85.2422" id="Job" rx="2.5" ry="2.5" style="stroke:#181818;stroke-width:0.5;" width="137" x="185" y="763"/><ellipse cx="238.25" cy="779" fill="#ADD1B2" rx="11" ry="11" style="stroke:#181818;stroke-width:1.0;"/><path d="M241.0156,774.875 Q241.1719,774.6563 241.3594,774.5469 Q241.5469,774.4375 241.7656,774.4375 Q242.1406,774.4375 242.375,774.7031 Q242.6094,774.9531 242.6094,775.5625 L242.6094,777.0156 Q242.6094,777.625 242.375,777.8906 Q242.1406,778.1563 241.7656,778.1563 Q241.4219,778.1563 241.2188,777.9531 Q241.0156,777.7656 240.9063,777.25 Q240.8594,776.8906 240.6719,776.7031 Q240.3438,776.3281 239.7344,776.1094 Q239.125,775.8906 238.5,775.8906 Q237.7344,775.8906 237.0938,776.2188 Q236.4688,776.5469 235.9688,777.2969 Q235.4844,778.0469 235.4844,779.0781 L235.4844,780.1719 Q235.4844,781.4063 236.375,782.2344 Q237.2656,783.0469 238.8594,783.0469 Q239.7969,783.0469 240.4531,782.7969 Q240.8438,782.6406 241.2656,782.2031 Q241.5313,781.9375 241.6719,781.8594 Q241.8281,781.7813 242.0313,781.7813 Q242.3594,781.7813 242.6094,782.0469 Q242.875,782.2969 242.875,782.6406 Q242.875,782.9844 242.5313,783.3906 Q242.0313,783.9688 241.2344,784.2969 Q240.1563,784.75 238.8594,784.75 Q237.3438,784.75 236.1406,784.125 Q235.1563,783.625 234.4688,782.5625 Q233.7813,781.4844 233.7813,780.2031 L233.7813,779.0469 Q233.7813,777.7188 234.3906,776.5781 Q235.0156,775.4219 236.1094,774.8125 Q237.2031,774.1875 238.4375,774.1875 Q239.1719,774.1875 239.8125,774.3594 Q240.4688,774.5156 241.0156,774.875 Z " fill="#000000"/><text fill="#000000" font-family="sans-serif" font-size="14" lengthAdjust="spacing" textLength="22" x="258.75" y="784.7969">Job</text><line style="stroke:#181818;stroke-width:0.5;" x1="186" x2="321" y1="795" y2="795"/><rect fill="none" height="6" style="stroke:#C82930;stroke-width:1.0;" width="6" x="193" y="806.8105"/><text fill="#000000" font-family="sans-serif" font-size="14" lengthAdjust="spacing" textLength="80" x="205" y="814.1074">name: String</text><line style="stroke:#181818;stroke-width:0.5;" x1="186" x2="321" y1="821.6211" y2="821.6211"/><ellipse cx="196" cy="836.4316" fill="#84BE84" rx="3" ry="3" style="stroke:#038048;stroke-width:1.0;"/><text fill="#000000" font-family="sans-serif" font-size="14" lengthAdjust="spacing" textLength="111" x="205" y="840.7285">getName(): String</text></g><!--link Organization to HumanResourceManager--><g id="link_Organization_HumanResourceManager"><path codeLine="42" d="M209.57,353.04 C204.46,373.06 200.7738,387.4964 195.7738,407.0864 " fill="none" id="Organization-to-HumanResourceManager" style="stroke:#181818;stroke-width:1.0;"/><polygon fill="#181818" points="194.29,412.9,200.3915,405.1688,195.5265,408.0553,192.64,403.1903,194.29,412.9" style="stroke:#181818;stroke-width:1.0;"/><text fill="#000000" font-family="sans-serif" font-size="13" lengthAdjust="spacing" textLength="7" x="200.569" y="374.7345">1</text><text fill="#000000" font-family="sans-serif" font-size="13" lengthAdjust="spacing" textLength="20" x="175.7551" y="401.5342">0..*</text></g><!--link HumanResourceManager to Job--><g id="link_HumanResourceManager_Job"><path codeLine="43" d="M213.9,703.23 C222.39,724.94 228.3376,740.131 234.9876,757.161 " fill="none" id="HumanResourceManager-to-Job" style="stroke:#181818;stroke-width:1.0;"/><polygon fill="#181818" points="237.17,762.75,237.6223,752.9115,235.3513,758.0925,230.1703,755.8215,237.17,762.75" style="stroke:#181818;stroke-width:1.0;"/><text fill="#000000" font-family="sans-serif" font-size="13" lengthAdjust="spacing" textLength="7" x="209.6277" y="725.1906">1</text><text fill="#000000" font-family="sans-serif" font-size="13" lengthAdjust="spacing" textLength="5" x="229.169" y="751.6142">*</text></g><!--link Organization to Job--><g id="link_Organization_Job"><path codeLine="44" d="M305.6,353.05 C328.85,456.04 344.75,588.72 313.5,703 C307.72,724.13 299.5536,740.2952 288.2036,757.8052 " fill="none" id="Organization-to-Job" style="stroke:#181818;stroke-width:1.0;"/><polygon fill="#181818" points="284.94,762.84,293.1919,757.4635,287.6596,758.6443,286.4788,753.1121,284.94,762.84" style="stroke:#181818;stroke-width:1.0;"/><text fill="#000000" font-family="sans-serif" font-size="13" lengthAdjust="spacing" textLength="7" x="300.6503" y="374.7449">1</text><text fill="#000000" font-family="sans-serif" font-size="13" lengthAdjust="spacing" textLength="20" x="268.357" y="751.7186">0..*</text></g><!--SRC=[bLFBJiCm4BpdAwoS0YWLN2FKIuM441H49JXlaYKn93QodLO2yU-iysXfiYsGapKpEzxPTR8Ah1NtfW0bFy19hSHd8EYBXO8Q4x5oHggYXzRWbasTeXdX6qojT6FrUwaLidgiGLOZh6ngK8zeTMCol0C51HgRY5jftUKrmytxkbUT3h8RdNRecIZGBQd_w6JlbXP_6a9mv7ENXACUTd4u-ifdcX2GvrppKMdwKo8udcpMMkOxTqva_Ms_pAVjWEOIqPWIGOU9Cs4xetQ2Nq6GjS-2iptsFBYrjezWXFrxPVniXvrCYCmWEFIfErWetFmjUaSPB0X1untsYx8IixSVndJqFPD8AjUd8sm1ZfHcgagrhX1KhrnuD_coygaFIhVR8EhmyBdnKUNUZnrUX2AEvo8ydyrEGtQx0RloRI5LKHT7NOd_1W00]--></g></svg>