<?xml version="1.0" encoding="us-ascii" standalone="no"?><svg xmlns="http://www.w3.org/2000/svg" xmlns:xlink="http://www.w3.org/1999/xlink" contentStyleType="text/css" height="781px" preserveAspectRatio="none" style="width:507px;height:781px;background:#FFFFFF;" version="1.1" viewBox="0 0 507 781" width="507px" zoomAndPan="magnify"><defs/><g><!--class Organization--><g id="elem_Organization"><rect codeLine="2" fill="#F1F1F1" height="345.9375" id="Organization" rx="2.5" ry="2.5" style="stroke:#181818;stroke-width:0.5;" width="493" x="7" y="7"/><ellipse cx="209.25" cy="23" fill="#ADD1B2" rx="11" ry="11" style="stroke:#181818;stroke-width:1.0;"/><path d="M212.0156,18.875 Q212.1719,18.6563 212.3594,18.5469 Q212.5469,18.4375 212.7656,18.4375 Q213.1406,18.4375 213.375,18.7031 Q213.6094,18.9531 213.6094,19.5625 L213.6094,21.0156 Q213.6094,21.625 213.375,21.8906 Q213.1406,22.1563 212.7656,22.1563 Q212.4219,22.1563 212.2188,21.9531 Q212.0156,21.7656 211.9063,21.25 Q211.8594,20.8906 211.6719,20.7031 Q211.3438,20.3281 210.7344,20.1094 Q210.125,19.8906 209.5,19.8906 Q208.7344,19.8906 208.0938,20.2188 Q207.4688,20.5469 206.9688,21.2969 Q206.4844,22.0469 206.4844,23.0781 L206.4844,24.1719 Q206.4844,25.4063 207.375,26.2344 Q208.2656,27.0469 209.8594,27.0469 Q210.7969,27.0469 211.4531,26.7969 Q211.8438,26.6406 212.2656,26.2031 Q212.5313,25.9375 212.6719,25.8594 Q212.8281,25.7813 213.0313,25.7813 Q213.3594,25.7813 213.6094,26.0469 Q213.875,26.2969 213.875,26.6406 Q213.875,26.9844 213.5313,27.3906 Q213.0313,27.9688 212.2344,28.2969 Q211.1563,28.75 209.8594,28.75 Q208.3438,28.75 207.1406,28.125 Q206.1563,27.625 205.4688,26.5625 Q204.7813,25.4844 204.7813,24.2031 L204.7813,23.0469 Q204.7813,21.7188 205.3906,20.5781 Q206.0156,19.4219 207.1094,18.8125 Q208.2031,18.1875 209.4375,18.1875 Q210.1719,18.1875 210.8125,18.3594 Q211.4688,18.5156 212.0156,18.875 Z " fill="#000000"/><text fill="#000000" font-family="sans-serif" font-size="14" lengthAdjust="spacing" textLength="80" x="229.75" y="28.7969">Organization</text><line style="stroke:#181818;stroke-width:0.5;" x1="8" x2="499" y1="39" y2="39"/><rect fill="none" height="6" style="stroke:#C82930;stroke-width:1.0;" width="6" x="15" y="50.8105"/><text fill="#000000" font-family="sans-serif" font-size="14" lengthAdjust="spacing" textLength="80" x="27" y="58.1074">name: String</text><rect fill="none" height="6" style="stroke:#C82930;stroke-width:1.0;" width="6" x="15" y="69.4316"/><text fill="#000000" font-family="sans-serif" font-size="14" lengthAdjust="spacing" textLength="113" x="27" y="76.7285">vatNumber: String</text><rect fill="none" height="6" style="stroke:#C82930;stroke-width:1.0;" width="6" x="15" y="88.0527"/><text fill="#000000" font-family="sans-serif" font-size="14" lengthAdjust="spacing" textLength="92" x="27" y="95.3496">website: String</text><rect fill="none" height="6" style="stroke:#C82930;stroke-width:1.0;" width="6" x="15" y="106.6738"/><text fill="#000000" font-family="sans-serif" font-size="14" lengthAdjust="spacing" textLength="134" x="27" y="113.9707">phoneNumber: String</text><rect fill="none" height="6" style="stroke:#C82930;stroke-width:1.0;" width="6" x="15" y="125.2949"/><text fill="#000000" font-family="sans-serif" font-size="14" lengthAdjust="spacing" textLength="78" x="27" y="132.5918">email: String</text><rect fill="none" height="6" style="stroke:#C82930;stroke-width:1.0;" width="6" x="15" y="143.916"/><text fill="#000000" font-family="sans-serif" font-size="14" lengthAdjust="spacing" textLength="374" x="27" y="151.2129">humanResourceManagers: List&lt;HumanResourceManager&gt;</text><rect fill="none" height="6" style="stroke:#C82930;stroke-width:1.0;" width="6" x="15" y="162.5371"/><text fill="#000000" font-family="sans-serif" font-size="14" lengthAdjust="spacing" textLength="94" x="27" y="169.834">jobs: List&lt;Job&gt;</text><line style="stroke:#181818;stroke-width:0.5;" x1="8" x2="499" y1="177.3477" y2="177.3477"/><ellipse cx="18" cy="192.1582" fill="#84BE84" rx="3" ry="3" style="stroke:#038048;stroke-width:1.0;"/><text fill="#000000" font-family="sans-serif" font-size="14" lengthAdjust="spacing" textLength="111" x="27" y="196.4551">getName(): String</text><ellipse cx="18" cy="210.7793" fill="#84BE84" rx="3" ry="3" style="stroke:#038048;stroke-width:1.0;"/><text fill="#000000" font-family="sans-serif" font-size="14" lengthAdjust="spacing" textLength="145" x="27" y="215.0762">getVatNumber(): String</text><ellipse cx="18" cy="229.4004" fill="#84BE84" rx="3" ry="3" style="stroke:#038048;stroke-width:1.0;"/><text fill="#000000" font-family="sans-serif" font-size="14" lengthAdjust="spacing" textLength="126" x="27" y="233.6973">getWebsite(): String</text><ellipse cx="18" cy="248.0215" fill="#84BE84" rx="3" ry="3" style="stroke:#038048;stroke-width:1.0;"/><text fill="#000000" font-family="sans-serif" font-size="14" lengthAdjust="spacing" textLength="165" x="27" y="252.3184">getPhoneNumber(): String</text><ellipse cx="18" cy="266.6426" fill="#84BE84" rx="3" ry="3" style="stroke:#038048;stroke-width:1.0;"/><text fill="#000000" font-family="sans-serif" font-size="14" lengthAdjust="spacing" textLength="109" x="27" y="270.9395">getEmail(): String</text><ellipse cx="18" cy="285.2637" fill="#84BE84" rx="3" ry="3" style="stroke:#038048;stroke-width:1.0;"/><text fill="#000000" font-family="sans-serif" font-size="14" lengthAdjust="spacing" textLength="467" x="27" y="289.5605">addHumanResourceManager(hrManager: HumanResourceManager): void</text><ellipse cx="18" cy="303.8848" fill="#84BE84" rx="3" ry="3" style="stroke:#038048;stroke-width:1.0;"/><text fill="#000000" font-family="sans-serif" font-size="14" lengthAdjust="spacing" textLength="405" x="27" y="308.1816">getHumanResourceManagers(): List&lt;HumanResourceManager&gt;</text><ellipse cx="18" cy="322.5059" fill="#84BE84" rx="3" ry="3" style="stroke:#038048;stroke-width:1.0;"/><text fill="#000000" font-family="sans-serif" font-size="14" lengthAdjust="spacing" textLength="139" x="27" y="326.8027">addJob(job: Job): void</text><ellipse cx="18" cy="341.127" fill="#84BE84" rx="3" ry="3" style="stroke:#038048;stroke-width:1.0;"/><text fill="#000000" font-family="sans-serif" font-size="14" lengthAdjust="spacing" textLength="127" x="27" y="345.4238">getJobs(): List&lt;Job&gt;</text></g><!--class HumanResourceManager--><g id="elem_HumanResourceManager"><rect codeLine="21" fill="#F1F1F1" height="215.5898" id="HumanResourceManager" rx="2.5" ry="2.5" style="stroke:#181818;stroke-width:0.5;" width="232" x="53.5" y="413"/><ellipse cx="86.05" cy="429" fill="#ADD1B2" rx="11" ry="11" style="stroke:#181818;stroke-width:1.0;"/><path d="M88.8156,424.875 Q88.9719,424.6563 89.1594,424.5469 Q89.3469,424.4375 89.5656,424.4375 Q89.9406,424.4375 90.175,424.7031 Q90.4094,424.9531 90.4094,425.5625 L90.4094,427.0156 Q90.4094,427.625 90.175,427.8906 Q89.9406,428.1563 89.5656,428.1563 Q89.2219,428.1563 89.0188,427.9531 Q88.8156,427.7656 88.7063,427.25 Q88.6594,426.8906 88.4719,426.7031 Q88.1438,426.3281 87.5344,426.1094 Q86.925,425.8906 86.3,425.8906 Q85.5344,425.8906 84.8938,426.2188 Q84.2688,426.5469 83.7688,427.2969 Q83.2844,428.0469 83.2844,429.0781 L83.2844,430.1719 Q83.2844,431.4063 84.175,432.2344 Q85.0656,433.0469 86.6594,433.0469 Q87.5969,433.0469 88.2531,432.7969 Q88.6438,432.6406 89.0656,432.2031 Q89.3313,431.9375 89.4719,431.8594 Q89.6281,431.7813 89.8313,431.7813 Q90.1594,431.7813 90.4094,432.0469 Q90.675,432.2969 90.675,432.6406 Q90.675,432.9844 90.3313,433.3906 Q89.8313,433.9688 89.0344,434.2969 Q87.9563,434.75 86.6594,434.75 Q85.1438,434.75 83.9406,434.125 Q82.9563,433.625 82.2688,432.5625 Q81.5813,431.4844 81.5813,430.2031 L81.5813,429.0469 Q81.5813,427.7188 82.1906,426.5781 Q82.8156,425.4219 83.9094,424.8125 Q85.0031,424.1875 86.2375,424.1875 Q86.9719,424.1875 87.6125,424.3594 Q88.2688,424.5156 88.8156,424.875 Z " fill="#000000"/><text fill="#000000" font-family="sans-serif" font-size="14" lengthAdjust="spacing" textLength="161" x="103.95" y="434.7969">HumanResourceManager</text><line style="stroke:#181818;stroke-width:0.5;" x1="54.5" x2="284.5" y1="445" y2="445"/><rect fill="none" height="6" style="stroke:#C82930;stroke-width:1.0;" width="6" x="61.5" y="456.8105"/><text fill="#000000" font-family="sans-serif" font-size="14" lengthAdjust="spacing" textLength="80" x="73.5" y="464.1074">name: String</text><rect fill="none" height="6" style="stroke:#C82930;stroke-width:1.0;" width="6" x="61.5" y="475.4316"/><text fill="#000000" font-family="sans-serif" font-size="14" lengthAdjust="spacing" textLength="78" x="73.5" y="482.7285">email: String</text><rect fill="none" height="6" style="stroke:#C82930;stroke-width:1.0;" width="6" x="61.5" y="494.0527"/><text fill="#000000" font-family="sans-serif" font-size="14" lengthAdjust="spacing" textLength="85" x="73.5" y="501.3496">phone: String</text><rect fill="none" height="6" style="stroke:#C82930;stroke-width:1.0;" width="6" x="61.5" y="512.6738"/><text fill="#000000" font-family="sans-serif" font-size="14" lengthAdjust="spacing" textLength="94" x="73.5" y="519.9707">jobs: List&lt;Job&gt;</text><line style="stroke:#181818;stroke-width:0.5;" x1="54.5" x2="284.5" y1="527.4844" y2="527.4844"/><ellipse cx="64.5" cy="542.2949" fill="#84BE84" rx="3" ry="3" style="stroke:#038048;stroke-width:1.0;"/><text fill="#000000" font-family="sans-serif" font-size="14" lengthAdjust="spacing" textLength="111" x="73.5" y="546.5918">getName(): String</text><ellipse cx="64.5" cy="560.916" fill="#84BE84" rx="3" ry="3" style="stroke:#038048;stroke-width:1.0;"/><text fill="#000000" font-family="sans-serif" font-size="14" lengthAdjust="spacing" textLength="109" x="73.5" y="565.2129">getEmail(): String</text><ellipse cx="64.5" cy="579.5371" fill="#84BE84" rx="3" ry="3" style="stroke:#038048;stroke-width:1.0;"/><text fill="#000000" font-family="sans-serif" font-size="14" lengthAdjust="spacing" textLength="116" x="73.5" y="583.834">getPhone(): String</text><ellipse cx="64.5" cy="598.1582" fill="#84BE84" rx="3" ry="3" style="stroke:#038048;stroke-width:1.0;"/><text fill="#000000" font-family="sans-serif" font-size="14" lengthAdjust="spacing" textLength="206" x="73.5" y="602.4551">createJob(jobName: String): void</text><ellipse cx="64.5" cy="616.7793" fill="#84BE84" rx="3" ry="3" style="stroke:#038048;stroke-width:1.0;"/><text fill="#000000" font-family="sans-serif" font-size="14" lengthAdjust="spacing" textLength="127" x="73.5" y="621.0762">getJobs(): List&lt;Job&gt;</text></g><!--class Job--><g id="elem_Job"><rect codeLine="33" fill="#F1F1F1" height="85.2422" id="Job" rx="2.5" ry="2.5" style="stroke:#181818;stroke-width:0.5;" width="137" x="185" y="689"/><ellipse cx="238.25" cy="705" fill="#ADD1B2" rx="11" ry="11" style="stroke:#181818;stroke-width:1.0;"/><path d="M241.0156,700.875 Q241.1719,700.6563 241.3594,700.5469 Q241.5469,700.4375 241.7656,700.4375 Q242.1406,700.4375 242.375,700.7031 Q242.6094,700.9531 242.6094,701.5625 L242.6094,703.0156 Q242.6094,703.625 242.375,703.8906 Q242.1406,704.1563 241.7656,704.1563 Q241.4219,704.1563 241.2188,703.9531 Q241.0156,703.7656 240.9063,703.25 Q240.8594,702.8906 240.6719,702.7031 Q240.3438,702.3281 239.7344,702.1094 Q239.125,701.8906 238.5,701.8906 Q237.7344,701.8906 237.0938,702.2188 Q236.4688,702.5469 235.9688,703.2969 Q235.4844,704.0469 235.4844,705.0781 L235.4844,706.1719 Q235.4844,707.4063 236.375,708.2344 Q237.2656,709.0469 238.8594,709.0469 Q239.7969,709.0469 240.4531,708.7969 Q240.8438,708.6406 241.2656,708.2031 Q241.5313,707.9375 241.6719,707.8594 Q241.8281,707.7813 242.0313,707.7813 Q242.3594,707.7813 242.6094,708.0469 Q242.875,708.2969 242.875,708.6406 Q242.875,708.9844 242.5313,709.3906 Q242.0313,709.9688 241.2344,710.2969 Q240.1563,710.75 238.8594,710.75 Q237.3438,710.75 236.1406,710.125 Q235.1563,709.625 234.4688,708.5625 Q233.7813,707.4844 233.7813,706.2031 L233.7813,705.0469 Q233.7813,703.7188 234.3906,702.5781 Q235.0156,701.4219 236.1094,700.8125 Q237.2031,700.1875 238.4375,700.1875 Q239.1719,700.1875 239.8125,700.3594 Q240.4688,700.5156 241.0156,700.875 Z " fill="#000000"/><text fill="#000000" font-family="sans-serif" font-size="14" lengthAdjust="spacing" textLength="22" x="258.75" y="710.7969">Job</text><line style="stroke:#181818;stroke-width:0.5;" x1="186" x2="321" y1="721" y2="721"/><rect fill="none" height="6" style="stroke:#C82930;stroke-width:1.0;" width="6" x="193" y="732.8105"/><text fill="#000000" font-family="sans-serif" font-size="14" lengthAdjust="spacing" textLength="80" x="205" y="740.1074">name: String</text><line style="stroke:#181818;stroke-width:0.5;" x1="186" x2="321" y1="747.6211" y2="747.6211"/><ellipse cx="196" cy="762.4316" fill="#84BE84" rx="3" ry="3" style="stroke:#038048;stroke-width:1.0;"/><text fill="#000000" font-family="sans-serif" font-size="14" lengthAdjust="spacing" textLength="111" x="205" y="766.7285">getName(): String</text></g><!--link Organization to HumanResourceManager--><g id="link_Organization_HumanResourceManager"><path codeLine="38" d="M210.76,353.48 C205.74,373.76 202.1608,388.1656 197.4608,407.1656 " fill="none" id="Organization-to-HumanResourceManager" style="stroke:#181818;stroke-width:1.0;"/><polygon fill="#181818" points="196.02,412.99,202.0641,405.2139,197.2207,408.1363,194.2982,403.2928,196.02,412.99" style="stroke:#181818;stroke-width:1.0;"/><text fill="#000000" font-family="sans-serif" font-size="13" lengthAdjust="spacing" textLength="7" x="201.8093" y="375.1931">1</text><text fill="#000000" font-family="sans-serif" font-size="13" lengthAdjust="spacing" textLength="20" x="177.1816" y="401.8509">0..*</text></g><!--link HumanResourceManager to Job--><g id="link_HumanResourceManager_Job"><path codeLine="39" d="M212.73,629.3 C221.25,650.46 227.4684,665.8745 234.4484,683.2045 " fill="none" id="HumanResourceManager-to-Job" style="stroke:#181818;stroke-width:1.0;"/><polygon fill="#181818" points="236.69,688.77,237.0379,678.9273,234.822,684.1321,229.6172,681.9161,236.69,688.77" style="stroke:#181818;stroke-width:1.0;"/><text fill="#000000" font-family="sans-serif" font-size="13" lengthAdjust="spacing" textLength="7" x="208.151" y="650.4672">1</text><text fill="#000000" font-family="sans-serif" font-size="13" lengthAdjust="spacing" textLength="5" x="228.6125" y="677.6374">*</text></g><!--link Organization to Job--><g id="link_Organization_Job"><path codeLine="40" d="M299.74,353.06 C315.48,437.07 324.43,539.16 303.5,629 C298.69,649.66 291.8878,665.6789 282.3378,683.3889 " fill="none" id="Organization-to-Job" style="stroke:#181818;stroke-width:1.0;"/><polygon fill="#181818" points="279.49,688.67,287.2824,682.6469,281.8632,684.2691,280.241,678.8498,279.49,688.67" style="stroke:#181818;stroke-width:1.0;"/><text fill="#000000" font-family="sans-serif" font-size="13" lengthAdjust="spacing" textLength="7" x="294.5431" y="374.7553">1</text><text fill="#000000" font-family="sans-serif" font-size="13" lengthAdjust="spacing" textLength="20" x="261.9385" y="677.8422">0..*</text></g><!--SRC=[bLF1JiCm3BttAwoU2gWJN2kq6n92h22GuEosLXkq9bEI3Wd4l-DbBMMj6LfFwNksu_Vib6jq3XviZLfze5T6msS4_AMWiQKCdhrLkkwXBVgyQmko4_oT2gVyD7hJ64rYFBMerXEiwLhKJ-HCPqjQeSQQhClWNZb_VIjmopxlpHH3s9qfzkW5rEHpxZyvExWbu2-328bytIkHgCTHZaJVx3JD2AmggVcaiVqf0uddCbkZgh6w5EHsj_tZJ-Y0VKdOfWpuCAlCs5WeEFWLHMLO2wdiiVMGnXgMO8ATF3BPss4cCwAqX9vwrVclFayHptz_QvMwvSo3TnHVnP2cIuWl5ulpM3Gp4Xt-IUGixk9eLUQ_0G00]--></g></svg>