<?xml version="1.0" encoding="us-ascii" standalone="no"?><svg xmlns="http://www.w3.org/2000/svg" xmlns:xlink="http://www.w3.org/1999/xlink" contentStyleType="text/css" height="525px" preserveAspectRatio="none" style="width:460px;height:525px;background:#FFFFFF;" version="1.1" viewBox="0 0 460 525" width="460px" zoomAndPan="magnify"><defs/><g><text fill="#000000" font-family="sans-serif" font-size="14" font-weight="bold" lengthAdjust="spacing" textLength="228" x="115.75" y="30.1074">System Sequence Diagram (SSD)</text><rect fill="#FFFFFF" height="263.0371" style="stroke:#181818;stroke-width:1.0;" width="10" x="57.5" y="151.8633"/><rect fill="#FFFFFF" height="31.291" style="stroke:#181818;stroke-width:1.0;" width="10" x="338.5" y="175.1543"/><rect fill="#FFFFFF" height="105.582" style="stroke:#181818;stroke-width:1.0;" width="10" x="338.5" y="237.7363"/><rect fill="#FFFFFF" height="28" style="stroke:#181818;stroke-width:1.0;" width="10" x="343.5" y="277.0273"/><rect fill="#FFFFFF" height="31.291" style="stroke:#181818;stroke-width:1.0;" width="10" x="338.5" y="374.6094"/><line style="stroke:#181818;stroke-width:0.5;stroke-dasharray:5.0,5.0;" x1="62" x2="62" y1="141.8633" y2="423.9004"/><line style="stroke:#181818;stroke-width:0.5;stroke-dasharray:5.0,5.0;" x1="343.5" x2="343.5" y1="141.8633" y2="423.9004"/><text fill="#000000" font-family="sans-serif" font-size="14" lengthAdjust="spacing" textLength="109" x="5" y="119.7285">Human Resource</text><text fill="#000000" font-family="sans-serif" font-size="14" lengthAdjust="spacing" textLength="56" x="31.5" y="138.3496">Manager</text><ellipse cx="62.5" cy="53.1211" fill="#E3E3E3" rx="8" ry="8" style="stroke:#181818;stroke-width:0.5;"/><path d="M62.5,61.1211 L62.5,88.1211 M49.5,69.1211 L75.5,69.1211 M62.5,88.1211 L49.5,103.1211 M62.5,88.1211 L75.5,103.1211 " fill="none" style="stroke:#181818;stroke-width:0.5;"/><text fill="#000000" font-family="sans-serif" font-size="14" lengthAdjust="spacing" textLength="109" x="5" y="438.0078">Human Resource</text><text fill="#000000" font-family="sans-serif" font-size="14" lengthAdjust="spacing" textLength="56" x="31.5" y="456.6289">Manager</text><ellipse cx="62.5" cy="468.6426" fill="#E3E3E3" rx="8" ry="8" style="stroke:#181818;stroke-width:0.5;"/><path d="M62.5,476.6426 L62.5,503.6426 M49.5,484.6426 L75.5,484.6426 M62.5,503.6426 L49.5,518.6426 M62.5,503.6426 L75.5,518.6426 " fill="none" style="stroke:#181818;stroke-width:0.5;"/><rect fill="#E3E3E3" height="32.6211" rx="2.5" ry="2.5" style="stroke:#181818;stroke-width:0.5;" width="64" x="311.5" y="108.2422"/><text fill="#000000" font-family="sans-serif" font-size="14" lengthAdjust="spacing" textLength="50" x="318.5" y="130.3496">:System</text><rect fill="#E3E3E3" height="32.6211" rx="2.5" ry="2.5" style="stroke:#181818;stroke-width:0.5;" width="64" x="311.5" y="422.9004"/><text fill="#000000" font-family="sans-serif" font-size="14" lengthAdjust="spacing" textLength="50" x="318.5" y="445.0078">:System</text><rect fill="#FFFFFF" height="263.0371" style="stroke:#181818;stroke-width:1.0;" width="10" x="57.5" y="151.8633"/><rect fill="#FFFFFF" height="31.291" style="stroke:#181818;stroke-width:1.0;" width="10" x="338.5" y="175.1543"/><rect fill="#FFFFFF" height="105.582" style="stroke:#181818;stroke-width:1.0;" width="10" x="338.5" y="237.7363"/><rect fill="#FFFFFF" height="28" style="stroke:#181818;stroke-width:1.0;" width="10" x="343.5" y="277.0273"/><rect fill="#FFFFFF" height="31.291" style="stroke:#181818;stroke-width:1.0;" width="10" x="338.5" y="374.6094"/><polygon fill="#181818" points="326.5,171.1543,336.5,175.1543,326.5,179.1543,330.5,175.1543" style="stroke:#181818;stroke-width:1.0;"/><line style="stroke:#181818;stroke-width:1.0;" x1="67.5" x2="332.5" y1="175.1543" y2="175.1543"/><text fill="#000000" font-family="sans-serif" font-size="13" font-weight="bold" lengthAdjust="spacing" textLength="7" x="74.5" y="169.8916">1</text><text fill="#000000" font-family="sans-serif" font-size="13" lengthAdjust="spacing" textLength="142" x="85.5" y="169.8916">asks to create a new job</text><polygon fill="#181818" points="78.5,202.4453,68.5,206.4453,78.5,210.4453,74.5,206.4453" style="stroke:#181818;stroke-width:1.0;"/><line style="stroke:#181818;stroke-width:1.0;stroke-dasharray:2.0,2.0;" x1="72.5" x2="342.5" y1="206.4453" y2="206.4453"/><text fill="#000000" font-family="sans-serif" font-size="13" font-weight="bold" lengthAdjust="spacing" textLength="7" x="84.5" y="201.1826">2</text><text fill="#000000" font-family="sans-serif" font-size="13" lengthAdjust="spacing" textLength="144" x="95.5" y="201.1826">requests data (job name)</text><polygon fill="#181818" points="326.5,233.7363,336.5,237.7363,326.5,241.7363,330.5,237.7363" style="stroke:#181818;stroke-width:1.0;"/><line style="stroke:#181818;stroke-width:1.0;" x1="67.5" x2="332.5" y1="237.7363" y2="237.7363"/><text fill="#000000" font-family="sans-serif" font-size="13" font-weight="bold" lengthAdjust="spacing" textLength="7" x="74.5" y="232.4736">3</text><text fill="#000000" font-family="sans-serif" font-size="13" lengthAdjust="spacing" textLength="122" x="85.5" y="232.4736">types requested data</text><line style="stroke:#181818;stroke-width:1.0;" x1="353.5" x2="395.5" y1="269.0273" y2="269.0273"/><line style="stroke:#181818;stroke-width:1.0;" x1="395.5" x2="395.5" y1="269.0273" y2="282.0273"/><line style="stroke:#181818;stroke-width:1.0;" x1="354.5" x2="395.5" y1="282.0273" y2="282.0273"/><polygon fill="#181818" points="364.5,278.0273,354.5,282.0273,364.5,286.0273,360.5,282.0273" style="stroke:#181818;stroke-width:1.0;"/><text fill="#000000" font-family="sans-serif" font-size="13" font-weight="bold" lengthAdjust="spacing" textLength="7" x="360.5" y="263.7646">4</text><text fill="#000000" font-family="sans-serif" font-size="13" lengthAdjust="spacing" textLength="82" x="371.5" y="263.7646">validation data</text><polygon fill="#181818" points="78.5,339.3184,68.5,343.3184,78.5,347.3184,74.5,343.3184" style="stroke:#181818;stroke-width:1.0;"/><line style="stroke:#181818;stroke-width:1.0;stroke-dasharray:2.0,2.0;" x1="72.5" x2="342.5" y1="343.3184" y2="343.3184"/><text fill="#000000" font-family="sans-serif" font-size="13" font-weight="bold" lengthAdjust="spacing" textLength="7" x="84.5" y="338.0557">5</text><text fill="#000000" font-family="sans-serif" font-size="13" lengthAdjust="spacing" textLength="236" x="95.5" y="338.0557">shows all data and requests confirmation</text><polygon fill="#181818" points="326.5,370.6094,336.5,374.6094,326.5,378.6094,330.5,374.6094" style="stroke:#181818;stroke-width:1.0;"/><line style="stroke:#181818;stroke-width:1.0;" x1="67.5" x2="332.5" y1="374.6094" y2="374.6094"/><text fill="#000000" font-family="sans-serif" font-size="13" font-weight="bold" lengthAdjust="spacing" textLength="7" x="74.5" y="369.3467">6</text><text fill="#000000" font-family="sans-serif" font-size="13" lengthAdjust="spacing" textLength="78" x="85.5" y="369.3467">confirms data</text><polygon fill="#181818" points="78.5,401.9004,68.5,405.9004,78.5,409.9004,74.5,405.9004" style="stroke:#181818;stroke-width:1.0;"/><line style="stroke:#181818;stroke-width:1.0;stroke-dasharray:2.0,2.0;" x1="72.5" x2="342.5" y1="405.9004" y2="405.9004"/><text fill="#000000" font-family="sans-serif" font-size="13" font-weight="bold" lengthAdjust="spacing" textLength="7" x="84.5" y="400.6377">7</text><text fill="#000000" font-family="sans-serif" font-size="13" lengthAdjust="spacing" textLength="158" x="95.5" y="400.6377">displays operation success</text><!--SRC=[bP2zSW8n38HxFuM62WfUW28LHPeqkJQDy8ax1rk-M3BClNtC_OM2IoQkvF7kfrtBnN672GE4oD6sAGO2JPcCB2yTsWisL6dl2H9PHMxyeq1QhEFDSGDdz4B6gDCYhNfH2b3HLoQs14U7pLs-hQhZpXZC6Zc74wKoMuq9Dgyv8CCxISp9qWU_8PV5QGCeCCsch5HdNOUii3cCEmR1E0uiTqMbnM6WdEa2-vSvrw6OBW8QmIQwwn6ORl0PJuDXmSnScCvatnVI33sKRoabHGLgL8HjWG1ZeDtWgkafx5aaxJkIcKRrW5kFCqTv05pHks9oaTUzlsHwMaxQU1D0xyTsoFLFNnlvx58ODlwtxEILFrgkvggTT1vxWTXH6ZjBjfP4Lf9y0m00]--></g></svg>