<?xml version="1.0" encoding="us-ascii" standalone="no"?><svg xmlns="http://www.w3.org/2000/svg" xmlns:xlink="http://www.w3.org/1999/xlink" contentStyleType="text/css" height="445px" preserveAspectRatio="none" style="width:454px;height:445px;background:#FFFFFF;" version="1.1" viewBox="0 0 454 445" width="454px" zoomAndPan="magnify"><defs/><g><text fill="#000000" font-family="sans-serif" font-size="14" font-weight="bold" lengthAdjust="spacing" textLength="237" x="107.75" y="30.1074">System Sequence Diagram (SSD) -</text><rect fill="#FFFFFF" height="220.0371" style="stroke:#181818;stroke-width:1.0;" width="10" x="87.5" y="133.2422"/><rect fill="#FFFFFF" height="31.291" style="stroke:#181818;stroke-width:1.0;" width="10" x="411.5" y="156.5332"/><rect fill="#FFFFFF" height="134.1641" style="stroke:#181818;stroke-width:1.0;" width="10" x="411.5" y="219.1152"/><rect fill="#FFFFFF" height="31.291" style="stroke:#181818;stroke-width:1.0;" width="10" x="416.5" y="250.4063"/><rect fill="#FFFFFF" height="31.291" style="stroke:#181818;stroke-width:1.0;" width="10" x="416.5" y="312.9883"/><line style="stroke:#181818;stroke-width:0.5;stroke-dasharray:5.0,5.0;" x1="92" x2="92" y1="123.2422" y2="362.2793"/><line style="stroke:#181818;stroke-width:0.5;stroke-dasharray:5.0,5.0;" x1="416.5" x2="416.5" y1="123.2422" y2="362.2793"/><text fill="#000000" font-family="sans-serif" font-size="14" lengthAdjust="spacing" textLength="169" x="5" y="119.7285">Human Resource Manager</text><ellipse cx="92.5" cy="53.1211" fill="#E3E3E3" rx="8" ry="8" style="stroke:#181818;stroke-width:0.5;"/><path d="M92.5,61.1211 L92.5,88.1211 M79.5,69.1211 L105.5,69.1211 M92.5,88.1211 L79.5,103.1211 M92.5,88.1211 L105.5,103.1211 " fill="none" style="stroke:#181818;stroke-width:0.5;"/><text fill="#000000" font-family="sans-serif" font-size="14" lengthAdjust="spacing" textLength="169" x="5" y="376.3867">Human Resource Manager</text><ellipse cx="92.5" cy="388.4004" fill="#E3E3E3" rx="8" ry="8" style="stroke:#181818;stroke-width:0.5;"/><path d="M92.5,396.4004 L92.5,423.4004 M79.5,404.4004 L105.5,404.4004 M92.5,423.4004 L79.5,438.4004 M92.5,423.4004 L105.5,438.4004 " fill="none" style="stroke:#181818;stroke-width:0.5;"/><rect fill="#E3E3E3" height="32.6211" rx="2.5" ry="2.5" style="stroke:#181818;stroke-width:0.5;" width="64" x="384.5" y="89.6211"/><text fill="#000000" font-family="sans-serif" font-size="14" lengthAdjust="spacing" textLength="50" x="391.5" y="111.7285">:System</text><rect fill="#E3E3E3" height="32.6211" rx="2.5" ry="2.5" style="stroke:#181818;stroke-width:0.5;" width="64" x="384.5" y="361.2793"/><text fill="#000000" font-family="sans-serif" font-size="14" lengthAdjust="spacing" textLength="50" x="391.5" y="383.3867">:System</text><rect fill="#FFFFFF" height="220.0371" style="stroke:#181818;stroke-width:1.0;" width="10" x="87.5" y="133.2422"/><rect fill="#FFFFFF" height="31.291" style="stroke:#181818;stroke-width:1.0;" width="10" x="411.5" y="156.5332"/><rect fill="#FFFFFF" height="134.1641" style="stroke:#181818;stroke-width:1.0;" width="10" x="411.5" y="219.1152"/><rect fill="#FFFFFF" height="31.291" style="stroke:#181818;stroke-width:1.0;" width="10" x="416.5" y="250.4063"/><rect fill="#FFFFFF" height="31.291" style="stroke:#181818;stroke-width:1.0;" width="10" x="416.5" y="312.9883"/><polygon fill="#181818" points="108.5,152.5332,98.5,156.5332,108.5,160.5332,104.5,156.5332" style="stroke:#181818;stroke-width:1.0;"/><line style="stroke:#181818;stroke-width:1.0;" x1="102.5" x2="410.5" y1="156.5332" y2="156.5332"/><text fill="#000000" font-family="sans-serif" font-size="13" font-weight="bold" lengthAdjust="spacing" textLength="7" x="114.5" y="151.2705">1</text><text fill="#000000" font-family="sans-serif" font-size="13" lengthAdjust="spacing" textLength="284" x="125.5" y="151.2705">Shows skills category list and asks to select one</text><polygon fill="#181818" points="404.5,183.8242,414.5,187.8242,404.5,191.8242,408.5,187.8242" style="stroke:#181818;stroke-width:1.0;"/><line style="stroke:#181818;stroke-width:1.0;stroke-dasharray:2.0,2.0;" x1="97.5" x2="410.5" y1="187.8242" y2="187.8242"/><text fill="#000000" font-family="sans-serif" font-size="13" font-weight="bold" lengthAdjust="spacing" textLength="7" x="104.5" y="182.5615">2</text><text fill="#000000" font-family="sans-serif" font-size="13" lengthAdjust="spacing" textLength="109" x="115.5" y="182.5615">Selects a skill (1+)</text><polygon fill="#181818" points="108.5,215.1152,98.5,219.1152,108.5,223.1152,104.5,219.1152" style="stroke:#181818;stroke-width:1.0;"/><line style="stroke:#181818;stroke-width:1.0;" x1="102.5" x2="410.5" y1="219.1152" y2="219.1152"/><text fill="#000000" font-family="sans-serif" font-size="13" font-weight="bold" lengthAdjust="spacing" textLength="7" x="114.5" y="213.8525">3</text><text fill="#000000" font-family="sans-serif" font-size="13" lengthAdjust="spacing" textLength="213" x="125.5" y="213.8525">Shows all collaborators with no skills</text><polygon fill="#181818" points="404.5,246.4063,414.5,250.4063,404.5,254.4063,408.5,250.4063" style="stroke:#181818;stroke-width:1.0;"/><line style="stroke:#181818;stroke-width:1.0;" x1="97.5" x2="410.5" y1="250.4063" y2="250.4063"/><text fill="#000000" font-family="sans-serif" font-size="13" font-weight="bold" lengthAdjust="spacing" textLength="7" x="104.5" y="245.1436">4</text><text fill="#000000" font-family="sans-serif" font-size="13" lengthAdjust="spacing" textLength="124" x="115.5" y="245.1436">selects a collaborator</text><polygon fill="#181818" points="399.5,277.6973,409.5,281.6973,399.5,285.6973,403.5,281.6973" style="stroke:#181818;stroke-width:1.0;"/><line style="stroke:#181818;stroke-width:1.0;stroke-dasharray:2.0,2.0;" x1="97.5" x2="405.5" y1="281.6973" y2="281.6973"/><text fill="#000000" font-family="sans-serif" font-size="13" font-weight="bold" lengthAdjust="spacing" textLength="7" x="104.5" y="276.4346">5</text><text fill="#000000" font-family="sans-serif" font-size="13" lengthAdjust="spacing" textLength="78" x="115.5" y="276.4346">Assign a skill</text><polygon fill="#181818" points="108.5,308.9883,98.5,312.9883,108.5,316.9883,104.5,312.9883" style="stroke:#181818;stroke-width:1.0;"/><line style="stroke:#181818;stroke-width:1.0;" x1="102.5" x2="415.5" y1="312.9883" y2="312.9883"/><text fill="#000000" font-family="sans-serif" font-size="13" font-weight="bold" lengthAdjust="spacing" textLength="7" x="114.5" y="307.7256">6</text><text fill="#000000" font-family="sans-serif" font-size="13" lengthAdjust="spacing" textLength="80" x="125.5" y="307.7256">Confirms data</text><polygon fill="#181818" points="108.5,340.2793,98.5,344.2793,108.5,348.2793,104.5,344.2793" style="stroke:#181818;stroke-width:1.0;"/><line style="stroke:#181818;stroke-width:1.0;stroke-dasharray:2.0,2.0;" x1="102.5" x2="410.5" y1="344.2793" y2="344.2793"/><text fill="#000000" font-family="sans-serif" font-size="13" font-weight="bold" lengthAdjust="spacing" textLength="7" x="114.5" y="339.0166">7</text><text fill="#000000" font-family="sans-serif" font-size="13" lengthAdjust="spacing" textLength="158" x="125.5" y="339.0166">displays operation success</text><!--SRC=[dP11JyCm38Nl-HNMJflG3bntG4A0n8KB_GLUwhNHahZ4BbF_FQRhoYQDIP2JbVYzxxt8FkGE2oP8dDctXHE1bfwSp2yT-ZqsLEaG2GfvnTp4ymLfiUP3o0tiC0evfq5jjHf4AK557prbJ_0SiFbUNrRLymhMpc6ldFkqfMApLowmUEqJPdWduRwOv0spaSi2KE0bTP478cTG3Jvqc1KMcoDbt3YEerVuHAKVYGCxKvxrmtmF6wXQFWXObnW5l8aQBWF480gOQtFT2oY3KBJYm9b6gvbmGi9qPkUrOIQWGKQr01v1iBo_MusIcguwtKYA9lSS8swve7sPm25e2vcd3jVZkSjiPz5aZdRk-f-IZoAXoQUEVwxtn7aNIXAeKV4s_wI_DAY3T1470Ux8IWJE8Btt9F9BbYy0]--></g></svg>