<?xml version="1.0" encoding="us-ascii" standalone="no"?><svg xmlns="http://www.w3.org/2000/svg" xmlns:xlink="http://www.w3.org/1999/xlink" contentStyleType="text/css" height="547px" preserveAspectRatio="none" style="width:433px;height:547px;background:#FFFFFF;" version="1.1" viewBox="0 0 433 547" width="433px" zoomAndPan="magnify"><defs/><g><text fill="#000000" font-family="sans-serif" font-size="14" font-weight="bold" lengthAdjust="spacing" textLength="228" x="104.25" y="30.1074">System Sequence Diagram (SSD)</text><rect fill="#FFFFFF" height="284.6191" style="stroke:#181818;stroke-width:1.0;" width="10" x="72.5" y="151.8633"/><rect fill="#FFFFFF" height="31.291" style="stroke:#181818;stroke-width:1.0;" width="10" x="380.5" y="175.1543"/><rect fill="#FFFFFF" height="57.582" style="stroke:#181818;stroke-width:1.0;" width="10" x="380.5" y="237.7363"/><rect fill="#FFFFFF" height="38.291" style="stroke:#181818;stroke-width:1.0;" width="10" x="380.5" y="326.6094"/><rect fill="#FFFFFF" height="31.291" style="stroke:#181818;stroke-width:1.0;" width="10" x="380.5" y="396.1914"/><rect fill="none" height="81.873" style="stroke:#000000;stroke-width:1.5;" width="417.5" x="10" y="252.7363"/><line style="stroke:#181818;stroke-width:0.5;stroke-dasharray:5.0,5.0;" x1="77" x2="77" y1="141.8633" y2="445.4824"/><line style="stroke:#181818;stroke-width:0.5;stroke-dasharray:5.0,5.0;" x1="385.5" x2="385.5" y1="141.8633" y2="445.4824"/><text fill="#000000" font-family="sans-serif" font-size="14" lengthAdjust="spacing" textLength="109" x="20" y="119.7285">Human Resource</text><text fill="#000000" font-family="sans-serif" font-size="14" lengthAdjust="spacing" textLength="56" x="46.5" y="138.3496">Manager</text><ellipse cx="77.5" cy="53.1211" fill="#E3E3E3" rx="8" ry="8" style="stroke:#181818;stroke-width:0.5;"/><path d="M77.5,61.1211 L77.5,88.1211 M64.5,69.1211 L90.5,69.1211 M77.5,88.1211 L64.5,103.1211 M77.5,88.1211 L90.5,103.1211 " fill="none" style="stroke:#181818;stroke-width:0.5;"/><text fill="#000000" font-family="sans-serif" font-size="14" lengthAdjust="spacing" textLength="109" x="20" y="459.5898">Human Resource</text><text fill="#000000" font-family="sans-serif" font-size="14" lengthAdjust="spacing" textLength="56" x="46.5" y="478.2109">Manager</text><ellipse cx="77.5" cy="490.2246" fill="#E3E3E3" rx="8" ry="8" style="stroke:#181818;stroke-width:0.5;"/><path d="M77.5,498.2246 L77.5,525.2246 M64.5,506.2246 L90.5,506.2246 M77.5,525.2246 L64.5,540.2246 M77.5,525.2246 L90.5,540.2246 " fill="none" style="stroke:#181818;stroke-width:0.5;"/><rect fill="#E3E3E3" height="32.6211" rx="2.5" ry="2.5" style="stroke:#181818;stroke-width:0.5;" width="64" x="353.5" y="108.2422"/><text fill="#000000" font-family="sans-serif" font-size="14" lengthAdjust="spacing" textLength="50" x="360.5" y="130.3496">:System</text><rect fill="#E3E3E3" height="32.6211" rx="2.5" ry="2.5" style="stroke:#181818;stroke-width:0.5;" width="64" x="353.5" y="444.4824"/><text fill="#000000" font-family="sans-serif" font-size="14" lengthAdjust="spacing" textLength="50" x="360.5" y="466.5898">:System</text><rect fill="#FFFFFF" height="284.6191" style="stroke:#181818;stroke-width:1.0;" width="10" x="72.5" y="151.8633"/><rect fill="#FFFFFF" height="31.291" style="stroke:#181818;stroke-width:1.0;" width="10" x="380.5" y="175.1543"/><rect fill="#FFFFFF" height="57.582" style="stroke:#181818;stroke-width:1.0;" width="10" x="380.5" y="237.7363"/><rect fill="#FFFFFF" height="38.291" style="stroke:#181818;stroke-width:1.0;" width="10" x="380.5" y="326.6094"/><rect fill="#FFFFFF" height="31.291" style="stroke:#181818;stroke-width:1.0;" width="10" x="380.5" y="396.1914"/><polygon fill="#181818" points="368.5,171.1543,378.5,175.1543,368.5,179.1543,372.5,175.1543" style="stroke:#181818;stroke-width:1.0;"/><line style="stroke:#181818;stroke-width:1.0;" x1="82.5" x2="374.5" y1="175.1543" y2="175.1543"/><text fill="#000000" font-family="sans-serif" font-size="13" font-weight="bold" lengthAdjust="spacing" textLength="7" x="89.5" y="169.8916">1</text><text fill="#000000" font-family="sans-serif" font-size="13" lengthAdjust="spacing" textLength="180" x="100.5" y="169.8916">asks to create a team proposal</text><polygon fill="#181818" points="93.5,202.4453,83.5,206.4453,93.5,210.4453,89.5,206.4453" style="stroke:#181818;stroke-width:1.0;"/><line style="stroke:#181818;stroke-width:1.0;stroke-dasharray:2.0,2.0;" x1="87.5" x2="384.5" y1="206.4453" y2="206.4453"/><text fill="#000000" font-family="sans-serif" font-size="13" font-weight="bold" lengthAdjust="spacing" textLength="7" x="99.5" y="201.1826">2</text><text fill="#000000" font-family="sans-serif" font-size="13" lengthAdjust="spacing" textLength="263" x="110.5" y="201.1826">requests data (min team size,max team size)</text><polygon fill="#181818" points="368.5,233.7363,378.5,237.7363,368.5,241.7363,372.5,237.7363" style="stroke:#181818;stroke-width:1.0;"/><line style="stroke:#181818;stroke-width:1.0;" x1="82.5" x2="374.5" y1="237.7363" y2="237.7363"/><text fill="#000000" font-family="sans-serif" font-size="13" font-weight="bold" lengthAdjust="spacing" textLength="7" x="89.5" y="232.4736">3</text><text fill="#000000" font-family="sans-serif" font-size="13" lengthAdjust="spacing" textLength="122" x="100.5" y="232.4736">types requested data</text><path d="M10,252.7363 L83,252.7363 L83,262.0273 L73,272.0273 L10,272.0273 L10,252.7363 " fill="#EEEEEE" style="stroke:#000000;stroke-width:1.5;"/><rect fill="none" height="81.873" style="stroke:#000000;stroke-width:1.5;" width="417.5" x="10" y="252.7363"/><text fill="#000000" font-family="sans-serif" font-size="13" font-weight="bold" lengthAdjust="spacing" textLength="28" x="25" y="267.7646">loop</text><polygon fill="#181818" points="93.5,291.3184,83.5,295.3184,93.5,299.3184,89.5,295.3184" style="stroke:#181818;stroke-width:1.0;"/><line style="stroke:#181818;stroke-width:1.0;stroke-dasharray:2.0,2.0;" x1="87.5" x2="384.5" y1="295.3184" y2="295.3184"/><text fill="#000000" font-family="sans-serif" font-size="13" font-weight="bold" lengthAdjust="spacing" textLength="7" x="99.5" y="290.0557">4</text><text fill="#000000" font-family="sans-serif" font-size="13" lengthAdjust="spacing" textLength="228" x="110.5" y="290.0557">shows skills list and asks to select one</text><polygon fill="#181818" points="368.5,322.6094,378.5,326.6094,368.5,330.6094,372.5,326.6094" style="stroke:#181818;stroke-width:1.0;"/><line style="stroke:#181818;stroke-width:1.0;" x1="82.5" x2="374.5" y1="326.6094" y2="326.6094"/><text fill="#000000" font-family="sans-serif" font-size="13" font-weight="bold" lengthAdjust="spacing" textLength="7" x="89.5" y="321.3467">5</text><text fill="#000000" font-family="sans-serif" font-size="13" lengthAdjust="spacing" textLength="80" x="100.5" y="321.3467">selects a skill</text><polygon fill="#181818" points="93.5,360.9004,83.5,364.9004,93.5,368.9004,89.5,364.9004" style="stroke:#181818;stroke-width:1.0;"/><line style="stroke:#181818;stroke-width:1.0;stroke-dasharray:2.0,2.0;" x1="87.5" x2="384.5" y1="364.9004" y2="364.9004"/><text fill="#000000" font-family="sans-serif" font-size="13" font-weight="bold" lengthAdjust="spacing" textLength="7" x="99.5" y="359.6377">6</text><text fill="#000000" font-family="sans-serif" font-size="13" lengthAdjust="spacing" textLength="236" x="110.5" y="359.6377">shows all data and requests confirmation</text><polygon fill="#181818" points="368.5,392.1914,378.5,396.1914,368.5,400.1914,372.5,396.1914" style="stroke:#181818;stroke-width:1.0;"/><line style="stroke:#181818;stroke-width:1.0;" x1="82.5" x2="374.5" y1="396.1914" y2="396.1914"/><text fill="#000000" font-family="sans-serif" font-size="13" font-weight="bold" lengthAdjust="spacing" textLength="7" x="89.5" y="390.9287">7</text><text fill="#000000" font-family="sans-serif" font-size="13" lengthAdjust="spacing" textLength="78" x="100.5" y="390.9287">confirms data</text><polygon fill="#181818" points="93.5,423.4824,83.5,427.4824,93.5,431.4824,89.5,427.4824" style="stroke:#181818;stroke-width:1.0;"/><line style="stroke:#181818;stroke-width:1.0;stroke-dasharray:2.0,2.0;" x1="87.5" x2="384.5" y1="427.4824" y2="427.4824"/><text fill="#000000" font-family="sans-serif" font-size="13" font-weight="bold" lengthAdjust="spacing" textLength="7" x="99.5" y="422.2197">8</text><text fill="#000000" font-family="sans-serif" font-size="13" lengthAdjust="spacing" textLength="250" x="110.5" y="422.2197">displays information and operation success</text><!--SRC=[bP6_KiCm3CRtF8MkKti7Bz21gGCB2rbPXAEcljfIi1HAU7gSlt1SKmvDSYBzli-VzUovmOGHeh2uKv98OAcbGfS_3ReprbHQ5mWIEKEkmyy1FM4b5yyr734e5OLvowDbfqOHIdfhYHt1mMFTZs_Byh0h2cnDk8slb7BlJ19i7jk83C-aqYP7B_o4d8NJ1b1XweiiQTxv1jbWinyrXe6n7LZ-7OsMZG9oJGUuVvXzxVFIMS44NA9-7i6elswIHXJ3iBR0PZfCDK7kCsz6xtCu-Qfg2XKQmZPw7f7gF-akuiVtQJU0AhhAl-RLkePq5g1gK5Xt64IQsrRr91U5_8OXA0Il1iZLaeXIoEyCmhHGLhok-Hq9caCTD9RPkNx3-c_4rGYzuHX36DFjxIvvE-6ZJn7D2_ytsMbN_uXqrLVbjGdOANW-okHXS2SDfV6ahNEakkBi2m00]--></g></svg>