<?xml version="1.0" encoding="us-ascii" standalone="no"?><svg xmlns="http://www.w3.org/2000/svg" xmlns:xlink="http://www.w3.org/1999/xlink" contentStyleType="text/css" height="621px" preserveAspectRatio="none" style="width:470px;height:621px;background:#FFFFFF;" version="1.1" viewBox="0 0 470 621" width="470px" zoomAndPan="magnify"><defs/><g><text fill="#000000" font-family="sans-serif" font-size="14" font-weight="bold" lengthAdjust="spacing" textLength="228" x="122.75" y="30.1074">System Sequence Diagram (SSD)</text><rect fill="#FFFFFF" height="358.9102" style="stroke:#181818;stroke-width:1.0;" width="10" x="72.5" y="151.8633"/><rect fill="#FFFFFF" height="31.291" style="stroke:#181818;stroke-width:1.0;" width="10" x="380.5" y="175.1543"/><rect fill="#FFFFFF" height="131.873" style="stroke:#181818;stroke-width:1.0;" width="10" x="380.5" y="237.7363"/><rect fill="#FFFFFF" height="28" style="stroke:#181818;stroke-width:1.0;" width="10" x="385.5" y="303.3184"/><rect fill="#FFFFFF" height="38.291" style="stroke:#181818;stroke-width:1.0;" width="10" x="380.5" y="400.9004"/><rect fill="#FFFFFF" height="31.291" style="stroke:#181818;stroke-width:1.0;" width="10" x="380.5" y="470.4824"/><rect fill="none" height="156.1641" style="stroke:#000000;stroke-width:1.5;" width="454.5" x="10" y="252.7363"/><line style="stroke:#181818;stroke-width:0.5;stroke-dasharray:5.0,5.0;" x1="77" x2="77" y1="141.8633" y2="519.7734"/><line style="stroke:#181818;stroke-width:0.5;stroke-dasharray:5.0,5.0;" x1="385.5" x2="385.5" y1="141.8633" y2="519.7734"/><text fill="#000000" font-family="sans-serif" font-size="14" lengthAdjust="spacing" textLength="109" x="20" y="119.7285">Human Resource</text><text fill="#000000" font-family="sans-serif" font-size="14" lengthAdjust="spacing" textLength="56" x="46.5" y="138.3496">Manager</text><ellipse cx="77.5" cy="53.1211" fill="#E3E3E3" rx="8" ry="8" style="stroke:#181818;stroke-width:0.5;"/><path d="M77.5,61.1211 L77.5,88.1211 M64.5,69.1211 L90.5,69.1211 M77.5,88.1211 L64.5,103.1211 M77.5,88.1211 L90.5,103.1211 " fill="none" style="stroke:#181818;stroke-width:0.5;"/><text fill="#000000" font-family="sans-serif" font-size="14" lengthAdjust="spacing" textLength="109" x="20" y="533.8809">Human Resource</text><text fill="#000000" font-family="sans-serif" font-size="14" lengthAdjust="spacing" textLength="56" x="46.5" y="552.502">Manager</text><ellipse cx="77.5" cy="564.5156" fill="#E3E3E3" rx="8" ry="8" style="stroke:#181818;stroke-width:0.5;"/><path d="M77.5,572.5156 L77.5,599.5156 M64.5,580.5156 L90.5,580.5156 M77.5,599.5156 L64.5,614.5156 M77.5,599.5156 L90.5,614.5156 " fill="none" style="stroke:#181818;stroke-width:0.5;"/><rect fill="#E3E3E3" height="32.6211" rx="2.5" ry="2.5" style="stroke:#181818;stroke-width:0.5;" width="64" x="353.5" y="108.2422"/><text fill="#000000" font-family="sans-serif" font-size="14" lengthAdjust="spacing" textLength="50" x="360.5" y="130.3496">:System</text><rect fill="#E3E3E3" height="32.6211" rx="2.5" ry="2.5" style="stroke:#181818;stroke-width:0.5;" width="64" x="353.5" y="518.7734"/><text fill="#000000" font-family="sans-serif" font-size="14" lengthAdjust="spacing" textLength="50" x="360.5" y="540.8809">:System</text><rect fill="#FFFFFF" height="358.9102" style="stroke:#181818;stroke-width:1.0;" width="10" x="72.5" y="151.8633"/><rect fill="#FFFFFF" height="31.291" style="stroke:#181818;stroke-width:1.0;" width="10" x="380.5" y="175.1543"/><rect fill="#FFFFFF" height="131.873" style="stroke:#181818;stroke-width:1.0;" width="10" x="380.5" y="237.7363"/><rect fill="#FFFFFF" height="28" style="stroke:#181818;stroke-width:1.0;" width="10" x="385.5" y="303.3184"/><rect fill="#FFFFFF" height="38.291" style="stroke:#181818;stroke-width:1.0;" width="10" x="380.5" y="400.9004"/><rect fill="#FFFFFF" height="31.291" style="stroke:#181818;stroke-width:1.0;" width="10" x="380.5" y="470.4824"/><polygon fill="#181818" points="368.5,171.1543,378.5,175.1543,368.5,179.1543,372.5,175.1543" style="stroke:#181818;stroke-width:1.0;"/><line style="stroke:#181818;stroke-width:1.0;" x1="82.5" x2="374.5" y1="175.1543" y2="175.1543"/><text fill="#000000" font-family="sans-serif" font-size="13" font-weight="bold" lengthAdjust="spacing" textLength="7" x="89.5" y="169.8916">1</text><text fill="#000000" font-family="sans-serif" font-size="13" lengthAdjust="spacing" textLength="180" x="100.5" y="169.8916">asks to create a team proposal</text><polygon fill="#181818" points="93.5,202.4453,83.5,206.4453,93.5,210.4453,89.5,206.4453" style="stroke:#181818;stroke-width:1.0;"/><line style="stroke:#181818;stroke-width:1.0;stroke-dasharray:2.0,2.0;" x1="87.5" x2="384.5" y1="206.4453" y2="206.4453"/><text fill="#000000" font-family="sans-serif" font-size="13" font-weight="bold" lengthAdjust="spacing" textLength="7" x="99.5" y="201.1826">2</text><text fill="#000000" font-family="sans-serif" font-size="13" lengthAdjust="spacing" textLength="263" x="110.5" y="201.1826">requests data (min team size,max team size)</text><polygon fill="#181818" points="368.5,233.7363,378.5,237.7363,368.5,241.7363,372.5,237.7363" style="stroke:#181818;stroke-width:1.0;"/><line style="stroke:#181818;stroke-width:1.0;" x1="82.5" x2="374.5" y1="237.7363" y2="237.7363"/><text fill="#000000" font-family="sans-serif" font-size="13" font-weight="bold" lengthAdjust="spacing" textLength="7" x="89.5" y="232.4736">3</text><text fill="#000000" font-family="sans-serif" font-size="13" lengthAdjust="spacing" textLength="122" x="100.5" y="232.4736">types requested data</text><path d="M10,252.7363 L83,252.7363 L83,262.0273 L73,272.0273 L10,272.0273 L10,252.7363 " fill="#EEEEEE" style="stroke:#000000;stroke-width:1.5;"/><rect fill="none" height="156.1641" style="stroke:#000000;stroke-width:1.5;" width="454.5" x="10" y="252.7363"/><text fill="#000000" font-family="sans-serif" font-size="13" font-weight="bold" lengthAdjust="spacing" textLength="28" x="25" y="267.7646">loop</text><line style="stroke:#181818;stroke-width:1.0;" x1="395.5" x2="437.5" y1="295.3184" y2="295.3184"/><line style="stroke:#181818;stroke-width:1.0;" x1="437.5" x2="437.5" y1="295.3184" y2="308.3184"/><line style="stroke:#181818;stroke-width:1.0;" x1="396.5" x2="437.5" y1="308.3184" y2="308.3184"/><polygon fill="#181818" points="406.5,304.3184,396.5,308.3184,406.5,312.3184,402.5,308.3184" style="stroke:#181818;stroke-width:1.0;"/><text fill="#000000" font-family="sans-serif" font-size="13" font-weight="bold" lengthAdjust="spacing" textLength="7" x="402.5" y="290.0557">4</text><text fill="#000000" font-family="sans-serif" font-size="13" lengthAdjust="spacing" textLength="39" x="413.5" y="290.0557">get list</text><polygon fill="#181818" points="93.5,365.6094,83.5,369.6094,93.5,373.6094,89.5,369.6094" style="stroke:#181818;stroke-width:1.0;"/><line style="stroke:#181818;stroke-width:1.0;stroke-dasharray:2.0,2.0;" x1="87.5" x2="384.5" y1="369.6094" y2="369.6094"/><text fill="#000000" font-family="sans-serif" font-size="13" font-weight="bold" lengthAdjust="spacing" textLength="7" x="99.5" y="364.3467">5</text><text fill="#000000" font-family="sans-serif" font-size="13" lengthAdjust="spacing" textLength="228" x="110.5" y="364.3467">shows skills list and asks to select one</text><polygon fill="#181818" points="368.5,396.9004,378.5,400.9004,368.5,404.9004,372.5,400.9004" style="stroke:#181818;stroke-width:1.0;"/><line style="stroke:#181818;stroke-width:1.0;" x1="82.5" x2="374.5" y1="400.9004" y2="400.9004"/><text fill="#000000" font-family="sans-serif" font-size="13" font-weight="bold" lengthAdjust="spacing" textLength="7" x="89.5" y="395.6377">6</text><text fill="#000000" font-family="sans-serif" font-size="13" lengthAdjust="spacing" textLength="80" x="100.5" y="395.6377">selects a skill</text><polygon fill="#181818" points="93.5,435.1914,83.5,439.1914,93.5,443.1914,89.5,439.1914" style="stroke:#181818;stroke-width:1.0;"/><line style="stroke:#181818;stroke-width:1.0;stroke-dasharray:2.0,2.0;" x1="87.5" x2="384.5" y1="439.1914" y2="439.1914"/><text fill="#000000" font-family="sans-serif" font-size="13" font-weight="bold" lengthAdjust="spacing" textLength="7" x="99.5" y="433.9287">7</text><text fill="#000000" font-family="sans-serif" font-size="13" lengthAdjust="spacing" textLength="236" x="110.5" y="433.9287">shows all data and requests confirmation</text><polygon fill="#181818" points="368.5,466.4824,378.5,470.4824,368.5,474.4824,372.5,470.4824" style="stroke:#181818;stroke-width:1.0;"/><line style="stroke:#181818;stroke-width:1.0;" x1="82.5" x2="374.5" y1="470.4824" y2="470.4824"/><text fill="#000000" font-family="sans-serif" font-size="13" font-weight="bold" lengthAdjust="spacing" textLength="7" x="89.5" y="465.2197">8</text><text fill="#000000" font-family="sans-serif" font-size="13" lengthAdjust="spacing" textLength="78" x="100.5" y="465.2197">confirms data</text><polygon fill="#181818" points="93.5,497.7734,83.5,501.7734,93.5,505.7734,89.5,501.7734" style="stroke:#181818;stroke-width:1.0;"/><line style="stroke:#181818;stroke-width:1.0;stroke-dasharray:2.0,2.0;" x1="87.5" x2="384.5" y1="501.7734" y2="501.7734"/><text fill="#000000" font-family="sans-serif" font-size="13" font-weight="bold" lengthAdjust="spacing" textLength="7" x="99.5" y="496.5107">9</text><text fill="#000000" font-family="sans-serif" font-size="13" lengthAdjust="spacing" textLength="250" x="110.5" y="496.5107">displays information and operation success</text><!--SRC=[bPA_KiCm3CPtFuMk4zpH5-Z0nC32GbOMuQYfhxOKB8KIdXut_-YGqaEJV9P-toVBUWpSOiO4ILZy8KiYiDoHq-McHN_4XYhh8q4cRyXDl2pG0zPo2jp07gEISnQib5Qz6YMewACZzWHF0Pjp-LrLFTqxXvq9T-cTSiczIORDSvUGuPLKkkpfZL-GYt3U02fCkIkI5dneaGqskr5ZA1ZJWHK-qMZfS51YEi3sSVQrAqr71HFmcSxr24RdSREqeXY7jWKsqs6A2R8jl1czAuzJHbLJgD4GxbBW4QdXcnuIVlsUxWTGJQlyDQ_MjwIp0DM3mdM7KQHrbpOlI0qPnA2ssls7gwjJwq5E2kKxnAW36P3hvN6LOlao84mBvG-1jT57WfRz31fBxHnhCn3NpjrmZ36EYphRNLRdXVSX9xGW_DybJRrwOpjNVTL1suYzGk2zJ1u6Tz9I7a_QUK-gLvpz0000]--></g></svg>