<?xml version="1.0" encoding="us-ascii" standalone="no"?><svg xmlns="http://www.w3.org/2000/svg" xmlns:xlink="http://www.w3.org/1999/xlink" contentStyleType="text/css" height="658.4px" preserveAspectRatio="none" style="width:691px;height:658px;background:#FFFFFF;" version="1.1" viewBox="0 0 691 658" width="691.2px" zoomAndPan="magnify"><defs/><g><text fill="#000000" font-family="sans-serif" font-size="11.2" font-weight="bold" lengthAdjust="spacing" textLength="182.4" x="255.8" y="24.0859">System Sequence Diagram (SSD)</text><rect fill="#FFFFFF" height="448.9906" style="stroke:#181818;stroke-width:0.8000000000000002;" width="8" x="58" y="121.4906"/><rect fill="#FFFFFF" height="25.0328" style="stroke:#181818;stroke-width:0.8000000000000002;" width="8" x="304.4" y="140.1234"/><rect fill="#FFFFFF" height="146.1969" style="stroke:#181818;stroke-width:0.8000000000000002;" width="8" x="304.4" y="190.1891"/><rect fill="#FFFFFF" height="30.6328" style="stroke:#181818;stroke-width:0.8000000000000002;" width="8" x="304.4" y="361.4188"/><rect fill="#FFFFFF" height="146.1969" style="stroke:#181818;stroke-width:0.8000000000000002;" width="8" x="304.4" y="417.0844"/><rect fill="#FFFFFF" height="75.0984" style="stroke:#181818;stroke-width:0.8000000000000002;" width="8" x="470.8" y="236.2547"/><rect fill="#FFFFFF" height="96.1313" style="stroke:#181818;stroke-width:0.8000000000000002;" width="8" x="470.8" y="442.1172"/><rect fill="#FFFFFF" height="25.0328" style="stroke:#181818;stroke-width:0.8000000000000002;" width="8" x="635.6" y="261.2875"/><rect fill="#FFFFFF" height="25.0328" style="stroke:#181818;stroke-width:0.8000000000000002;" width="8" x="635.6" y="488.1828"/><rect fill="none" height="165.6297" style="stroke:#000000;stroke-width:1.2000000000000002;" width="678.8" x="8" y="202.1891"/><line style="stroke:#181818;stroke-width:0.4000000000000001;stroke-dasharray:5.0,5.0;" x1="61.6" x2="61.6" y1="113.4906" y2="577.6813"/><line style="stroke:#181818;stroke-width:0.4000000000000001;stroke-dasharray:5.0,5.0;" x1="308.4" x2="308.4" y1="113.4906" y2="577.6813"/><line style="stroke:#181818;stroke-width:0.4000000000000001;stroke-dasharray:5.0,5.0;" x1="474.4" x2="474.4" y1="113.4906" y2="577.6813"/><line style="stroke:#181818;stroke-width:0.4000000000000001;stroke-dasharray:5.0,5.0;" x1="639.6" x2="639.6" y1="113.4906" y2="577.6813"/><text fill="#000000" font-family="sans-serif" font-size="11.2" lengthAdjust="spacing" textLength="87.2" x="16" y="95.7828">Human Resource</text><text fill="#000000" font-family="sans-serif" font-size="11.2" lengthAdjust="spacing" textLength="44.8" x="37.2" y="110.6797">Manager</text><ellipse cx="62" cy="42.4969" fill="#E3E3E3" rx="6.4" ry="6.4" style="stroke:#181818;stroke-width:0.4000000000000001;"/><path d="M62,48.8969 L62,70.4969 M51.6,55.2969 L72.4,55.2969 M62,70.4969 L51.6,82.4969 M62,70.4969 L72.4,82.4969 " fill="none" style="stroke:#181818;stroke-width:0.4000000000000001;"/><text fill="#000000" font-family="sans-serif" font-size="11.2" lengthAdjust="spacing" textLength="87.2" x="16" y="588.9672">Human Resource</text><text fill="#000000" font-family="sans-serif" font-size="11.2" lengthAdjust="spacing" textLength="44.8" x="37.2" y="603.8641">Manager</text><ellipse cx="62" cy="613.475" fill="#E3E3E3" rx="6.4" ry="6.4" style="stroke:#181818;stroke-width:0.4000000000000001;"/><path d="M62,619.875 L62,641.475 M51.6,626.275 L72.4,626.275 M62,641.475 L51.6,653.475 M62,641.475 L72.4,653.475 " fill="none" style="stroke:#181818;stroke-width:0.4000000000000001;"/><rect fill="#E3E3E3" height="26.0969" rx="2" ry="2" style="stroke:#181818;stroke-width:0.4000000000000001;" width="100.8" x="258" y="86.5938"/><text fill="#000000" font-family="sans-serif" font-size="11.2" lengthAdjust="spacing" textLength="89.6" x="263.6" y="104.2797">:GenerateTeamUI</text><rect fill="#E3E3E3" height="26.0969" rx="2" ry="2" style="stroke:#181818;stroke-width:0.4000000000000001;" width="100.8" x="258" y="576.8813"/><text fill="#000000" font-family="sans-serif" font-size="11.2" lengthAdjust="spacing" textLength="89.6" x="263.6" y="594.5672">:GenerateTeamUI</text><rect fill="#E3E3E3" height="26.0969" rx="2" ry="2" style="stroke:#181818;stroke-width:0.4000000000000001;" width="84" x="432.8" y="86.5938"/><text fill="#000000" font-family="sans-serif" font-size="11.2" lengthAdjust="spacing" textLength="72.8" x="438.4" y="104.2797">:SkillController</text><rect fill="#E3E3E3" height="26.0969" rx="2" ry="2" style="stroke:#181818;stroke-width:0.4000000000000001;" width="84" x="432.8" y="576.8813"/><text fill="#000000" font-family="sans-serif" font-size="11.2" lengthAdjust="spacing" textLength="72.8" x="438.4" y="594.5672">:SkillController</text><rect fill="#E3E3E3" height="26.0969" rx="2" ry="2" style="stroke:#181818;stroke-width:0.4000000000000001;" width="78.4" x="600.4" y="86.5938"/><text fill="#000000" font-family="sans-serif" font-size="11.2" lengthAdjust="spacing" textLength="67.2" x="606" y="104.2797">:Organization</text><rect fill="#E3E3E3" height="26.0969" rx="2" ry="2" style="stroke:#181818;stroke-width:0.4000000000000001;" width="78.4" x="600.4" y="576.8813"/><text fill="#000000" font-family="sans-serif" font-size="11.2" lengthAdjust="spacing" textLength="67.2" x="606" y="594.5672">:Organization</text><rect fill="#FFFFFF" height="448.9906" style="stroke:#181818;stroke-width:0.8000000000000002;" width="8" x="58" y="121.4906"/><rect fill="#FFFFFF" height="25.0328" style="stroke:#181818;stroke-width:0.8000000000000002;" width="8" x="304.4" y="140.1234"/><rect fill="#FFFFFF" height="146.1969" style="stroke:#181818;stroke-width:0.8000000000000002;" width="8" x="304.4" y="190.1891"/><rect fill="#FFFFFF" height="30.6328" style="stroke:#181818;stroke-width:0.8000000000000002;" width="8" x="304.4" y="361.4188"/><rect fill="#FFFFFF" height="146.1969" style="stroke:#181818;stroke-width:0.8000000000000002;" width="8" x="304.4" y="417.0844"/><rect fill="#FFFFFF" height="75.0984" style="stroke:#181818;stroke-width:0.8000000000000002;" width="8" x="470.8" y="236.2547"/><rect fill="#FFFFFF" height="96.1313" style="stroke:#181818;stroke-width:0.8000000000000002;" width="8" x="470.8" y="442.1172"/><rect fill="#FFFFFF" height="25.0328" style="stroke:#181818;stroke-width:0.8000000000000002;" width="8" x="635.6" y="261.2875"/><rect fill="#FFFFFF" height="25.0328" style="stroke:#181818;stroke-width:0.8000000000000002;" width="8" x="635.6" y="488.1828"/><polygon fill="#181818" points="294.8,136.9234,302.8,140.1234,294.8,143.3234,298,140.1234" style="stroke:#181818;stroke-width:0.8000000000000002;"/><line style="stroke:#181818;stroke-width:0.8000000000000002;" x1="66" x2="299.6" y1="140.1234" y2="140.1234"/><text fill="#000000" font-family="sans-serif" font-size="10.4" font-weight="bold" lengthAdjust="spacing" textLength="5.6" x="71.6" y="135.9133">1</text><text fill="#000000" font-family="sans-serif" font-size="10.4" lengthAdjust="spacing" textLength="144" x="80.4" y="135.9133">asks to create a team proposal</text><polygon fill="#181818" points="74.8,161.9563,66.8,165.1563,74.8,168.3563,71.6,165.1563" style="stroke:#181818;stroke-width:0.8000000000000002;"/><line style="stroke:#181818;stroke-width:0.8000000000000002;stroke-dasharray:2.0,2.0;" x1="70" x2="307.6" y1="165.1563" y2="165.1563"/><text fill="#000000" font-family="sans-serif" font-size="10.4" font-weight="bold" lengthAdjust="spacing" textLength="5.6" x="79.6" y="160.9461">2</text><text fill="#000000" font-family="sans-serif" font-size="10.4" lengthAdjust="spacing" textLength="210.4" x="88.4" y="160.9461">requests data (min team size,max team size)</text><polygon fill="#181818" points="294.8,186.9891,302.8,190.1891,294.8,193.3891,298,190.1891" style="stroke:#181818;stroke-width:0.8000000000000002;"/><line style="stroke:#181818;stroke-width:0.8000000000000002;" x1="66" x2="299.6" y1="190.1891" y2="190.1891"/><text fill="#000000" font-family="sans-serif" font-size="10.4" font-weight="bold" lengthAdjust="spacing" textLength="5.6" x="71.6" y="185.9789">3</text><text fill="#000000" font-family="sans-serif" font-size="10.4" lengthAdjust="spacing" textLength="97.6" x="80.4" y="185.9789">types requested data</text><path d="M8,202.1891 L66.4,202.1891 L66.4,209.6219 L58.4,217.6219 L8,217.6219 L8,202.1891 " fill="#EEEEEE" style="stroke:#000000;stroke-width:1.2000000000000002;"/><rect fill="none" height="165.6297" style="stroke:#000000;stroke-width:1.2000000000000002;" width="678.8" x="8" y="202.1891"/><text fill="#000000" font-family="sans-serif" font-size="10.4" font-weight="bold" lengthAdjust="spacing" textLength="22.4" x="20" y="214.2117">loop</text><polygon fill="#181818" points="461.2,233.0547,469.2,236.2547,461.2,239.4547,464.4,236.2547" style="stroke:#181818;stroke-width:0.8000000000000002;"/><line style="stroke:#181818;stroke-width:0.8000000000000002;" x1="312.4" x2="466" y1="236.2547" y2="236.2547"/><text fill="#000000" font-family="sans-serif" font-size="10.4" font-weight="bold" lengthAdjust="spacing" textLength="5.6" x="318" y="232.0445">4</text><text fill="#000000" font-family="sans-serif" font-size="10.4" lengthAdjust="spacing" textLength="57.6" x="326.8" y="232.0445">getSkillList()</text><polygon fill="#181818" points="626,258.0875,634,261.2875,626,264.4875,629.2,261.2875" style="stroke:#181818;stroke-width:0.8000000000000002;"/><line style="stroke:#181818;stroke-width:0.8000000000000002;" x1="478.8" x2="630.8" y1="261.2875" y2="261.2875"/><text fill="#000000" font-family="sans-serif" font-size="10.4" font-weight="bold" lengthAdjust="spacing" textLength="5.6" x="484.4" y="257.0773">5</text><text fill="#000000" font-family="sans-serif" font-size="10.4" lengthAdjust="spacing" textLength="57.6" x="493.2" y="257.0773">getSkillList()</text><polygon fill="#181818" points="487.6,283.1203,479.6,286.3203,487.6,289.5203,484.4,286.3203" style="stroke:#181818;stroke-width:0.8000000000000002;"/><line style="stroke:#181818;stroke-width:0.8000000000000002;" x1="482.8" x2="638.8" y1="286.3203" y2="286.3203"/><text fill="#000000" font-family="sans-serif" font-size="10.4" font-weight="bold" lengthAdjust="spacing" textLength="5.6" x="492.4" y="282.1102">6</text><text fill="#000000" font-family="sans-serif" font-size="10.4" lengthAdjust="spacing" textLength="40" x="501.2" y="282.1102">Skill List</text><polygon fill="#181818" points="321.2,308.1531,313.2,311.3531,321.2,314.5531,318,311.3531" style="stroke:#181818;stroke-width:0.8000000000000002;"/><line style="stroke:#181818;stroke-width:0.8000000000000002;" x1="316.4" x2="474" y1="311.3531" y2="311.3531"/><text fill="#000000" font-family="sans-serif" font-size="10.4" font-weight="bold" lengthAdjust="spacing" textLength="5.6" x="326" y="307.143">7</text><text fill="#000000" font-family="sans-serif" font-size="10.4" lengthAdjust="spacing" textLength="40" x="334.8" y="307.143">Skill List</text><polygon fill="#181818" points="74.8,333.1859,66.8,336.3859,74.8,339.5859,71.6,336.3859" style="stroke:#181818;stroke-width:0.8000000000000002;"/><line style="stroke:#181818;stroke-width:0.8000000000000002;stroke-dasharray:2.0,2.0;" x1="70" x2="307.6" y1="336.3859" y2="336.3859"/><text fill="#000000" font-family="sans-serif" font-size="10.4" font-weight="bold" lengthAdjust="spacing" textLength="5.6" x="79.6" y="332.1758">8</text><text fill="#000000" font-family="sans-serif" font-size="10.4" lengthAdjust="spacing" textLength="182.4" x="88.4" y="332.1758">shows skills list and asks to select one</text><polygon fill="#181818" points="294.8,358.2188,302.8,361.4188,294.8,364.6188,298,361.4188" style="stroke:#181818;stroke-width:0.8000000000000002;"/><line style="stroke:#181818;stroke-width:0.8000000000000002;" x1="66" x2="299.6" y1="361.4188" y2="361.4188"/><text fill="#000000" font-family="sans-serif" font-size="10.4" font-weight="bold" lengthAdjust="spacing" textLength="5.6" x="71.6" y="357.2086">9</text><text fill="#000000" font-family="sans-serif" font-size="10.4" lengthAdjust="spacing" textLength="64" x="80.4" y="357.2086">selects a skill</text><polygon fill="#181818" points="74.8,388.8516,66.8,392.0516,74.8,395.2516,71.6,392.0516" style="stroke:#181818;stroke-width:0.8000000000000002;"/><line style="stroke:#181818;stroke-width:0.8000000000000002;stroke-dasharray:2.0,2.0;" x1="70" x2="307.6" y1="392.0516" y2="392.0516"/><text fill="#000000" font-family="sans-serif" font-size="10.4" font-weight="bold" lengthAdjust="spacing" textLength="11.2" x="79.6" y="387.8414">10</text><text fill="#000000" font-family="sans-serif" font-size="10.4" lengthAdjust="spacing" textLength="188.8" x="94" y="387.8414">shows all data and requests confirmation</text><polygon fill="#181818" points="294.8,413.8844,302.8,417.0844,294.8,420.2844,298,417.0844" style="stroke:#181818;stroke-width:0.8000000000000002;"/><line style="stroke:#181818;stroke-width:0.8000000000000002;" x1="66" x2="299.6" y1="417.0844" y2="417.0844"/><text fill="#000000" font-family="sans-serif" font-size="10.4" font-weight="bold" lengthAdjust="spacing" textLength="11.2" x="71.6" y="412.8742">11</text><text fill="#000000" font-family="sans-serif" font-size="10.4" lengthAdjust="spacing" textLength="62.4" x="86" y="412.8742">confirms data</text><polygon fill="#181818" points="461.2,438.9172,469.2,442.1172,461.2,445.3172,464.4,442.1172" style="stroke:#181818;stroke-width:0.8000000000000002;"/><line style="stroke:#181818;stroke-width:0.8000000000000002;" x1="312.4" x2="466" y1="442.1172" y2="442.1172"/><text fill="#000000" font-family="sans-serif" font-size="10.4" font-weight="bold" lengthAdjust="spacing" textLength="11.2" x="318" y="437.907">12</text><text fill="#000000" font-family="sans-serif" font-size="10.4" lengthAdjust="spacing" textLength="128.8" x="332.4" y="437.907">generateTeamBySkill(skills)</text><polygon fill="#181818" points="626,484.9828,634,488.1828,626,491.3828,629.2,488.1828" style="stroke:#181818;stroke-width:0.8000000000000002;"/><line style="stroke:#181818;stroke-width:0.8000000000000002;" x1="478.8" x2="630.8" y1="488.1828" y2="488.1828"/><text fill="#000000" font-family="sans-serif" font-size="10.4" font-weight="bold" lengthAdjust="spacing" textLength="11.2" x="484.4" y="483.9727">13</text><text fill="#000000" font-family="sans-serif" font-size="10.4" lengthAdjust="spacing" textLength="127.2" x="498.8" y="483.9727">getCollaboratorBySkill(skill)</text><polygon fill="#181818" points="487.6,510.0156,479.6,513.2156,487.6,516.4156,484.4,513.2156" style="stroke:#181818;stroke-width:0.8000000000000002;"/><line style="stroke:#181818;stroke-width:0.8000000000000002;" x1="482.8" x2="638.8" y1="513.2156" y2="513.2156"/><text fill="#000000" font-family="sans-serif" font-size="10.4" font-weight="bold" lengthAdjust="spacing" textLength="11.2" x="492.4" y="509.0055">14</text><text fill="#000000" font-family="sans-serif" font-size="10.4" lengthAdjust="spacing" textLength="55.2" x="506.8" y="509.0055">Collaborator</text><polygon fill="#181818" points="321.2,535.0484,313.2,538.2484,321.2,541.4484,318,538.2484" style="stroke:#181818;stroke-width:0.8000000000000002;"/><line style="stroke:#181818;stroke-width:0.8000000000000002;" x1="316.4" x2="474" y1="538.2484" y2="538.2484"/><text fill="#000000" font-family="sans-serif" font-size="10.4" font-weight="bold" lengthAdjust="spacing" textLength="11.2" x="326" y="534.0383">15</text><text fill="#000000" font-family="sans-serif" font-size="10.4" lengthAdjust="spacing" textLength="25.6" x="340.4" y="534.0383">Team</text><polygon fill="#181818" points="74.8,560.0813,66.8,563.2813,74.8,566.4813,71.6,563.2813" style="stroke:#181818;stroke-width:0.8000000000000002;"/><line style="stroke:#181818;stroke-width:0.8000000000000002;stroke-dasharray:2.0,2.0;" x1="70" x2="307.6" y1="563.2813" y2="563.2813"/><text fill="#000000" font-family="sans-serif" font-size="10.4" font-weight="bold" lengthAdjust="spacing" textLength="11.2" x="79.6" y="559.0711">16</text><text fill="#000000" font-family="sans-serif" font-size="10.4" lengthAdjust="spacing" textLength="200" x="94" y="559.0711">displays information and operation success</text><!--SRC=[hLFBRjim4BphAnO-sK3p0pxaq0He0xGeK3MtNZRKMYPCSLKkrTJv-YvfHvPaEV4XEl4nEpkS7SdE-XO3Dj2mPxCDt134q54X_KsBPeSrbN7l20APYBvsGu1iiU9dwslOe1CgYcYZGikzH6gWf3yTUKDmRx5Ey6LPtg-A0hl8lckUAEZQH0wm-DerwE4d2NV1q6__7Rqs3Wj0WUEwq9RH6jkYZx1OVo5F0IFz8cmU7pBmyM62ANVMkJlsCR1pHxR9sQJYHwZHsnUCbds63m-IMFjNU_QI2j3lk86RMrK0QwtQ2KG64oXX4I8bBmEtBEXoIK-aalD1-hJuHZbUwTRgkFedKQ32YB1ih3zGYNsXJmt-E-rMcQIYCzwfjhXlILw9gShCyueSSpkITZkrJkbgYldmcvMuNFNm4U7Ky1urfTCEGxUlf1yDQ8WOSSsfpmUGk4Tr9nVVKfhTd64OpE3Ymyy6BLj-5f245t1A1-YhFaT2JdyzO4zpNOO9caxxK2aQmSmzUkPqw6bFlZgGNL28-jgSnIIlJwTXlx6XEKtWYXmUQsG-WE_7xlJlVzxd- -N1lLD8tX_3AE5N1_9Ex_29jJs7KUyFpoSCMxqLqKlnJFOK5shE9bnPQHtk1QpVy76QUSxS9g_JJZfZI6Hcnly1]--></g></svg>