<?xml version="1.0" encoding="us-ascii" standalone="no"?><svg xmlns="http://www.w3.org/2000/svg" xmlns:xlink="http://www.w3.org/1999/xlink" contentStyleType="text/css" height="799px" preserveAspectRatio="none" style="width:347px;height:799px;background:#FFFFFF;" version="1.1" viewBox="0 0 347 799" width="347px" zoomAndPan="magnify"><defs/><g><!--class Organization--><g id="elem_Organization"><rect codeLine="2" fill="#F1F1F1" height="290.0742" id="Organization" rx="2.5" ry="2.5" style="stroke:#181818;stroke-width:0.5;" width="333" x="7" y="7"/><ellipse cx="129.25" cy="23" fill="#ADD1B2" rx="11" ry="11" style="stroke:#181818;stroke-width:1.0;"/><path d="M132.0156,18.875 Q132.1719,18.6563 132.3594,18.5469 Q132.5469,18.4375 132.7656,18.4375 Q133.1406,18.4375 133.375,18.7031 Q133.6094,18.9531 133.6094,19.5625 L133.6094,21.0156 Q133.6094,21.625 133.375,21.8906 Q133.1406,22.1563 132.7656,22.1563 Q132.4219,22.1563 132.2188,21.9531 Q132.0156,21.7656 131.9063,21.25 Q131.8594,20.8906 131.6719,20.7031 Q131.3438,20.3281 130.7344,20.1094 Q130.125,19.8906 129.5,19.8906 Q128.7344,19.8906 128.0938,20.2188 Q127.4688,20.5469 126.9688,21.2969 Q126.4844,22.0469 126.4844,23.0781 L126.4844,24.1719 Q126.4844,25.4063 127.375,26.2344 Q128.2656,27.0469 129.8594,27.0469 Q130.7969,27.0469 131.4531,26.7969 Q131.8438,26.6406 132.2656,26.2031 Q132.5313,25.9375 132.6719,25.8594 Q132.8281,25.7813 133.0313,25.7813 Q133.3594,25.7813 133.6094,26.0469 Q133.875,26.2969 133.875,26.6406 Q133.875,26.9844 133.5313,27.3906 Q133.0313,27.9688 132.2344,28.2969 Q131.1563,28.75 129.8594,28.75 Q128.3438,28.75 127.1406,28.125 Q126.1563,27.625 125.4688,26.5625 Q124.7813,25.4844 124.7813,24.2031 L124.7813,23.0469 Q124.7813,21.7188 125.3906,20.5781 Q126.0156,19.4219 127.1094,18.8125 Q128.2031,18.1875 129.4375,18.1875 Q130.1719,18.1875 130.8125,18.3594 Q131.4688,18.5156 132.0156,18.875 Z " fill="#000000"/><text fill="#000000" font-family="sans-serif" font-size="14" lengthAdjust="spacing" textLength="80" x="149.75" y="28.7969">Organization</text><line style="stroke:#181818;stroke-width:0.5;" x1="8" x2="339" y1="39" y2="39"/><rect fill="none" height="6" style="stroke:#C82930;stroke-width:1.0;" width="6" x="15" y="50.8105"/><text fill="#000000" font-family="sans-serif" font-size="14" lengthAdjust="spacing" textLength="80" x="27" y="58.1074">name: String</text><rect fill="none" height="6" style="stroke:#C82930;stroke-width:1.0;" width="6" x="15" y="69.4316"/><text fill="#000000" font-family="sans-serif" font-size="14" lengthAdjust="spacing" textLength="113" x="27" y="76.7285">vatNumber: String</text><rect fill="none" height="6" style="stroke:#C82930;stroke-width:1.0;" width="6" x="15" y="88.0527"/><text fill="#000000" font-family="sans-serif" font-size="14" lengthAdjust="spacing" textLength="92" x="27" y="95.3496">website: String</text><rect fill="none" height="6" style="stroke:#C82930;stroke-width:1.0;" width="6" x="15" y="106.6738"/><text fill="#000000" font-family="sans-serif" font-size="14" lengthAdjust="spacing" textLength="134" x="27" y="113.9707">phoneNumber: String</text><rect fill="none" height="6" style="stroke:#C82930;stroke-width:1.0;" width="6" x="15" y="125.2949"/><text fill="#000000" font-family="sans-serif" font-size="14" lengthAdjust="spacing" textLength="78" x="27" y="132.5918">email: String</text><rect fill="none" height="6" style="stroke:#C82930;stroke-width:1.0;" width="6" x="15" y="143.916"/><text fill="#000000" font-family="sans-serif" font-size="14" lengthAdjust="spacing" textLength="206" x="27" y="151.2129">collaborators: List&lt;Collaborator&gt;</text><line style="stroke:#181818;stroke-width:0.5;" x1="8" x2="339" y1="158.7266" y2="158.7266"/><ellipse cx="18" cy="173.5371" fill="#84BE84" rx="3" ry="3" style="stroke:#038048;stroke-width:1.0;"/><text fill="#000000" font-family="sans-serif" font-size="14" lengthAdjust="spacing" textLength="111" x="27" y="177.834">getName(): String</text><ellipse cx="18" cy="192.1582" fill="#84BE84" rx="3" ry="3" style="stroke:#038048;stroke-width:1.0;"/><text fill="#000000" font-family="sans-serif" font-size="14" lengthAdjust="spacing" textLength="145" x="27" y="196.4551">getVatNumber(): String</text><ellipse cx="18" cy="210.7793" fill="#84BE84" rx="3" ry="3" style="stroke:#038048;stroke-width:1.0;"/><text fill="#000000" font-family="sans-serif" font-size="14" lengthAdjust="spacing" textLength="126" x="27" y="215.0762">getWebsite(): String</text><ellipse cx="18" cy="229.4004" fill="#84BE84" rx="3" ry="3" style="stroke:#038048;stroke-width:1.0;"/><text fill="#000000" font-family="sans-serif" font-size="14" lengthAdjust="spacing" textLength="165" x="27" y="233.6973">getPhoneNumber(): String</text><ellipse cx="18" cy="248.0215" fill="#84BE84" rx="3" ry="3" style="stroke:#038048;stroke-width:1.0;"/><text fill="#000000" font-family="sans-serif" font-size="14" lengthAdjust="spacing" textLength="109" x="27" y="252.3184">getEmail(): String</text><ellipse cx="18" cy="266.6426" fill="#84BE84" rx="3" ry="3" style="stroke:#038048;stroke-width:1.0;"/><text fill="#000000" font-family="sans-serif" font-size="14" lengthAdjust="spacing" textLength="307" x="27" y="270.9395">addCollaborator(collaborator: Collaborator): void</text><ellipse cx="18" cy="285.2637" fill="#84BE84" rx="3" ry="3" style="stroke:#038048;stroke-width:1.0;"/><text fill="#000000" font-family="sans-serif" font-size="14" lengthAdjust="spacing" textLength="239" x="27" y="289.5605">getCollaborators(): List&lt;Collaborator&gt;</text></g><!--class Collaborator--><g id="elem_Collaborator"><rect codeLine="18" fill="#F1F1F1" height="290.0742" id="Collaborator" rx="2.5" ry="2.5" style="stroke:#181818;stroke-width:0.5;" width="280" x="33.5" y="357"/><ellipse cx="130.25" cy="373" fill="#ADD1B2" rx="11" ry="11" style="stroke:#181818;stroke-width:1.0;"/><path d="M133.0156,368.875 Q133.1719,368.6563 133.3594,368.5469 Q133.5469,368.4375 133.7656,368.4375 Q134.1406,368.4375 134.375,368.7031 Q134.6094,368.9531 134.6094,369.5625 L134.6094,371.0156 Q134.6094,371.625 134.375,371.8906 Q134.1406,372.1563 133.7656,372.1563 Q133.4219,372.1563 133.2188,371.9531 Q133.0156,371.7656 132.9063,371.25 Q132.8594,370.8906 132.6719,370.7031 Q132.3438,370.3281 131.7344,370.1094 Q131.125,369.8906 130.5,369.8906 Q129.7344,369.8906 129.0938,370.2188 Q128.4688,370.5469 127.9688,371.2969 Q127.4844,372.0469 127.4844,373.0781 L127.4844,374.1719 Q127.4844,375.4063 128.375,376.2344 Q129.2656,377.0469 130.8594,377.0469 Q131.7969,377.0469 132.4531,376.7969 Q132.8438,376.6406 133.2656,376.2031 Q133.5313,375.9375 133.6719,375.8594 Q133.8281,375.7813 134.0313,375.7813 Q134.3594,375.7813 134.6094,376.0469 Q134.875,376.2969 134.875,376.6406 Q134.875,376.9844 134.5313,377.3906 Q134.0313,377.9688 133.2344,378.2969 Q132.1563,378.75 130.8594,378.75 Q129.3438,378.75 128.1406,378.125 Q127.1563,377.625 126.4688,376.5625 Q125.7813,375.4844 125.7813,374.2031 L125.7813,373.0469 Q125.7813,371.7188 126.3906,370.5781 Q127.0156,369.4219 128.1094,368.8125 Q129.2031,368.1875 130.4375,368.1875 Q131.1719,368.1875 131.8125,368.3594 Q132.4688,368.5156 133.0156,368.875 Z " fill="#000000"/><text fill="#000000" font-family="sans-serif" font-size="14" lengthAdjust="spacing" textLength="78" x="150.75" y="378.7969">Collaborator</text><line style="stroke:#181818;stroke-width:0.5;" x1="34.5" x2="312.5" y1="389" y2="389"/><rect fill="none" height="6" style="stroke:#C82930;stroke-width:1.0;" width="6" x="41.5" y="400.8105"/><text fill="#000000" font-family="sans-serif" font-size="14" lengthAdjust="spacing" textLength="80" x="53.5" y="408.1074">name: String</text><rect fill="none" height="6" style="stroke:#C82930;stroke-width:1.0;" width="6" x="41.5" y="419.4316"/><text fill="#000000" font-family="sans-serif" font-size="14" lengthAdjust="spacing" textLength="78" x="53.5" y="426.7285">email: String</text><rect fill="none" height="6" style="stroke:#C82930;stroke-width:1.0;" width="6" x="41.5" y="438.0527"/><text fill="#000000" font-family="sans-serif" font-size="14" lengthAdjust="spacing" textLength="85" x="53.5" y="445.3496">phone: String</text><rect fill="none" height="6" style="stroke:#C82930;stroke-width:1.0;" width="6" x="41.5" y="456.6738"/><text fill="#000000" font-family="sans-serif" font-size="14" lengthAdjust="spacing" textLength="101" x="53.5" y="463.9707">skills: List&lt;Skill&gt;</text><line style="stroke:#181818;stroke-width:0.5;" x1="34.5" x2="312.5" y1="471.4844" y2="471.4844"/><rect fill="#F24D5C" height="6" style="stroke:#C82930;stroke-width:1.0;" width="6" x="41.5" y="483.2949"/><text fill="#000000" font-family="sans-serif" font-size="14" lengthAdjust="spacing" textLength="246" x="53.5" y="490.5918">SkillCatcher(String SkillName): boolean</text><rect fill="#F24D5C" height="6" style="stroke:#C82930;stroke-width:1.0;" width="6" x="41.5" y="501.916"/><text fill="#000000" font-family="sans-serif" font-size="14" lengthAdjust="spacing" textLength="254" x="53.5" y="509.2129">CheckifSame(String SkillName): boolean</text><ellipse cx="44.5" cy="523.5371" fill="#84BE84" rx="3" ry="3" style="stroke:#038048;stroke-width:1.0;"/><text fill="#000000" font-family="sans-serif" font-size="14" lengthAdjust="spacing" textLength="111" x="53.5" y="527.834">getName(): String</text><ellipse cx="44.5" cy="542.1582" fill="#84BE84" rx="3" ry="3" style="stroke:#038048;stroke-width:1.0;"/><text fill="#000000" font-family="sans-serif" font-size="14" lengthAdjust="spacing" textLength="109" x="53.5" y="546.4551">getEmail(): String</text><ellipse cx="44.5" cy="560.7793" fill="#84BE84" rx="3" ry="3" style="stroke:#038048;stroke-width:1.0;"/><text fill="#000000" font-family="sans-serif" font-size="14" lengthAdjust="spacing" textLength="116" x="53.5" y="565.0762">getPhone(): String</text><ellipse cx="44.5" cy="579.4004" fill="#84BE84" rx="3" ry="3" style="stroke:#038048;stroke-width:1.0;"/><text fill="#000000" font-family="sans-serif" font-size="14" lengthAdjust="spacing" textLength="149" x="53.5" y="583.6973">addSkill(skill: Skill): void</text><ellipse cx="44.5" cy="598.0215" fill="#84BE84" rx="3" ry="3" style="stroke:#038048;stroke-width:1.0;"/><text fill="#000000" font-family="sans-serif" font-size="14" lengthAdjust="spacing" textLength="133" x="53.5" y="602.3184">getSkills(): List&lt;Skill&gt;</text><ellipse cx="44.5" cy="616.6426" fill="#84BE84" rx="3" ry="3" style="stroke:#038048;stroke-width:1.0;"/><text fill="#000000" font-family="sans-serif" font-size="14" lengthAdjust="spacing" textLength="117" x="53.5" y="620.9395">registerSkill(): void</text><ellipse cx="44.5" cy="635.2637" fill="#84BE84" rx="3" ry="3" style="stroke:#038048;stroke-width:1.0;"/><text fill="#000000" font-family="sans-serif" font-size="14" lengthAdjust="spacing" textLength="197" x="53.5" y="639.5605">checkSkill(String SkillName): int</text></g><!--class Skill--><g id="elem_Skill"><rect codeLine="35" fill="#F1F1F1" height="85.2422" id="Skill" rx="2.5" ry="2.5" style="stroke:#181818;stroke-width:0.5;" width="137" x="105" y="707"/><ellipse cx="156.75" cy="723" fill="#ADD1B2" rx="11" ry="11" style="stroke:#181818;stroke-width:1.0;"/><path d="M159.5156,718.875 Q159.6719,718.6563 159.8594,718.5469 Q160.0469,718.4375 160.2656,718.4375 Q160.6406,718.4375 160.875,718.7031 Q161.1094,718.9531 161.1094,719.5625 L161.1094,721.0156 Q161.1094,721.625 160.875,721.8906 Q160.6406,722.1563 160.2656,722.1563 Q159.9219,722.1563 159.7188,721.9531 Q159.5156,721.7656 159.4063,721.25 Q159.3594,720.8906 159.1719,720.7031 Q158.8438,720.3281 158.2344,720.1094 Q157.625,719.8906 157,719.8906 Q156.2344,719.8906 155.5938,720.2188 Q154.9688,720.5469 154.4688,721.2969 Q153.9844,722.0469 153.9844,723.0781 L153.9844,724.1719 Q153.9844,725.4063 154.875,726.2344 Q155.7656,727.0469 157.3594,727.0469 Q158.2969,727.0469 158.9531,726.7969 Q159.3438,726.6406 159.7656,726.2031 Q160.0313,725.9375 160.1719,725.8594 Q160.3281,725.7813 160.5313,725.7813 Q160.8594,725.7813 161.1094,726.0469 Q161.375,726.2969 161.375,726.6406 Q161.375,726.9844 161.0313,727.3906 Q160.5313,727.9688 159.7344,728.2969 Q158.6563,728.75 157.3594,728.75 Q155.8438,728.75 154.6406,728.125 Q153.6563,727.625 152.9688,726.5625 Q152.2813,725.4844 152.2813,724.2031 L152.2813,723.0469 Q152.2813,721.7188 152.8906,720.5781 Q153.5156,719.4219 154.6094,718.8125 Q155.7031,718.1875 156.9375,718.1875 Q157.6719,718.1875 158.3125,718.3594 Q158.9688,718.5156 159.5156,718.875 Z " fill="#000000"/><text fill="#000000" font-family="sans-serif" font-size="14" lengthAdjust="spacing" textLength="25" x="177.25" y="728.7969">Skill</text><line style="stroke:#181818;stroke-width:0.5;" x1="106" x2="241" y1="739" y2="739"/><rect fill="none" height="6" style="stroke:#C82930;stroke-width:1.0;" width="6" x="113" y="750.8105"/><text fill="#000000" font-family="sans-serif" font-size="14" lengthAdjust="spacing" textLength="80" x="125" y="758.1074">name: String</text><line style="stroke:#181818;stroke-width:0.5;" x1="106" x2="241" y1="765.6211" y2="765.6211"/><ellipse cx="116" cy="780.4316" fill="#84BE84" rx="3" ry="3" style="stroke:#038048;stroke-width:1.0;"/><text fill="#000000" font-family="sans-serif" font-size="14" lengthAdjust="spacing" textLength="111" x="125" y="784.7285">getName(): String</text></g><!--link Organization to Collaborator--><g id="link_Organization_Collaborator"><path codeLine="40" d="M173.5,297.06 C173.5,316.78 173.5,331.04 173.5,350.77 " fill="none" id="Organization-to-Collaborator" style="stroke:#181818;stroke-width:1.0;"/><polygon fill="#181818" points="173.5,356.77,177.5,347.77,173.5,351.77,169.5,347.77,173.5,356.77" style="stroke:#181818;stroke-width:1.0;"/><text fill="#000000" font-family="sans-serif" font-size="13" lengthAdjust="spacing" textLength="7" x="166.3195" y="319.0118">1</text><text fill="#000000" font-family="sans-serif" font-size="13" lengthAdjust="spacing" textLength="20" x="152.9844" y="345.8772">0..*</text></g><!--link Collaborator to Skill--><g id="link_Collaborator_Skill"><path codeLine="41" d="M173.5,647.23 C173.5,668.94 173.5,683.72 173.5,700.75 " fill="none" id="Collaborator-to-Skill" style="stroke:#181818;stroke-width:1.0;"/><polygon fill="#181818" points="173.5,706.75,177.5,697.75,173.5,701.75,169.5,697.75,173.5,706.75" style="stroke:#181818;stroke-width:1.0;"/><text fill="#000000" font-family="sans-serif" font-size="13" lengthAdjust="spacing" textLength="20" x="152.9844" y="669.1906">0..*</text><text fill="#000000" font-family="sans-serif" font-size="13" lengthAdjust="spacing" textLength="20" x="151.9063" y="695.6142">0..*</text></g><!--SRC=[XLDDJuGm5BptLxnmGZTiz4eC5x8tivgGwBcK2isMrhHrJJJ-T_i1eR1rvTQPUUsycK0urXgUL8y5-yA6IG7V2EnNWC0ZBQ4nYeb-WixO73_6bgeD_abRpSnM_Jv8GPDwEcB6DnYHdEDMAcoaqYKyCcqUwWYhl6u7FJL7woo_MSrx_6Msbo9VWySKzRmOJT47v_Q2m5qNsyjZ_oN4b9qyIzOj5yQaTXSdblr1YFXkOlXQDwbCVGCRJ9yOvtF0ZJjK4-CFDJPai3c4cO2vlAtBLafEiPZKzK39YRqrhej_n5TBIwSxjvAAtJ-J-ptAyEP5mXvTeetMt86YlSMe2jUiHubRAX29dPWmQ2d6CtytabhQpgv-jUm-WwAe8BlRxs-pLTLerViaYBJ-TVGB]--></g></svg>